<?xml version="1.0" encoding="UTF-8"?>
<svg id="Layer_1" xmlns="http://www.w3.org/2000/svg" version="1.1" viewBox="0 0 504 504">
  <!-- Generator: Adobe Illustrator 29.8.2, SVG Export Plug-In . SVG Version: 2.1.1 Build 3)  -->
  <defs>
    <style>
      .st0 {
        fill-rule: evenodd;
      }
    </style>
  </defs>
  <path class="st0" d="M238.2,461.4c0,.7.2,2.3,1.8,2.3,1.7,0,2.7-1.2,2.7-2.2,0-1.2-.9-2.2-2-2.2h-.1c-1.4,0-2.4,1.4-2.4,2.1ZM359.5,404.4c1-10.1,1.7-25.6,1.6-25.6l1-.9s-.4,10.5-1.3,26.2c-.6,12.1-.1,21.1.1,24.5.3,3.3.9,13.1,2.8,12.7,2-.3,4.6-7.1,4.6-7,0,0-1.4-3.4-1-7.1.4-3.6,3.2-8.2,6.5-8.1,3.3,0,2.3,5.5,0,5.8s-1.9-2.9-1.9-2.9c-4.1,2.4-.4,13.1,2.6,12,4.8-2,5.5-11.6,5.4-11.6,0,0-.3-2.8-.8-4.3-.4-1.5-.4-2.5.4-3.7.8-1.2,1.8-3.5,1.8-3.5-.4,8.1,1.7,16.2,3.4,15.9,1.7-.4,3.8-7.9,3.7-7.9-1.2-2.7-1.7-5.4-1-9,.5-2.7,2.6-6.7,5.6-6.2,3,.4,3.4,5.7.6,6-3,.2-2-3.4-2-3.4-3.5,2.4-1.1,12.7,3.4,12.1,4.5-.6,5.6-9.1,5.5-9-1.6-2.4-2.3-4.3-2-8.9.3-4.6,3.2-8.2,6-7.6,2.1.4,2.6,4.7.4,5.3-2.6.7-2.6-2-2.6-2-2.2,2-2.5,5.2-.7,8.4,1.8,3.2,4.5,3.7,6.8,1.4,2.3-2.2,1.7-10.1,1.7-10-.1,0-4.9-14.6-9.3-30.5-4.6-18.5-9.2-37.7-9.2-37.6l.5-1c-.2,0,4.1,15.6,10.5,38.9,4,14.1,8.4,25.2,8.8,26.5s2.8,7,4.2,6.3c1.8-.9,1.8-8.2,1.8-8.2,0,0-7.7-20.6-13.3-42.5-5.5-22-10.2-36.6-10-36.6l.4-1c-.1.1,4,12.8,10.1,35.1,5.1,18.9,12.1,35.4,12.2,35.4,0,0,.1-5.6,2.3-8,2.3-2.4,4.9.2,4.9.2.2,0-1.6-12.2,4.9-12.3,6.7-.2,6.4,12.9,6.4,13,4.4-6,4.4-11.1,4.4-11.1-2.7-3.6-3.5-9.3-3.5-9.3,0,0-1.1,4.7-3.5,5.4-2.6.8-9.3-3.9-12.3-12.8-3.6-11.4-4.3-31.1-4.5-31.1l.3-.8c.1,0,1.8,16.7,5.5,29.6,1.8,5.9,8.3,11.7,11.1,10,2.9-1.7,2.1-6.7,2.1-6.7l1-2.1c.8,7.7,4.1,14.5,6.9,14.2,3.7-.4,3.1-10.1,3-10.1-1.5-.9-3-2.1-4.6-6.1-1.7-4-1.4-8.6,1.5-9.8,2.9-1.2,6.2,3.2,4,5.1-1.8,1.5-4.1-1.9-4.1-1.9-3.8,4.4,5.7,11.1,8.1,9.2,2.3-1.9,1.4-9.7,1.4-9.7-5.6-4.3-6.6-10.9-6.1-14.2.4-3.3,3.2-3.3,4.8-1.9,1.6,1.4,2,3.1.6,4.2-1.4,1-3.2-1.3-3.2-1.3-3,4,4.5,11.4,7.3,9.3,3.2-2.4.1-9-1.8-11.4-1.8-2.4-3.2-4.9-3.7-7.8-.7-2.9.2-3.7.2-3.7.9,3.7,9.4,14.9,10.1,14.1,1.3-1.6-.2-8.6-.3-8.6s-8.4-10.7-17.8-22.3c-4.6-5.7-8.6-12.1-12.4-17.4-3.3-4.9-6.8-9.7-10.5-14.3-.9-1.3-6.9-8.9-6.9-8.8v-1c0,0,12.2,14.1,22.6,29,7.1,9.3,21,25,20.9,25.2.1,0-4.3-8.7-.5-11.9,3.9-3.7,11.5,1.5,13,8.4.9,3.5-.5,9-3.3,8.5-1.2-.2-3.1-1.8-1.8-3.9,1.2-2.1,3.2,0,3.2,0,2.2-5.3-2.4-9.7-6.3-9.8-3.9-.2-4.2,2.1-3.6,5.3.7,3.2,1.8,6.7,1.9,6.7,0,0,3.3,3.7,7.5,9.7,2.4,3.5,5.8,8.9,7.9,14.3,6,16,.8,21.7.9,21.5l-.5-.7c2.7-3.8,1.2-11.3-2.1-19.2-3.3-8-10.9-18-11-18,1.7,4.6,1.4,11.1.3,12.1-.9.9-3-2.1-3-2.1.4,1.1,1.4,8.9-.5,10.9-1.8,2-4.3,0-4.3,0,0,0,2.2,7.6-1.1,12.1-2.7,3.5-5.5.7-5.5.7,0,0,.3,10.4-2.3,13.1-1.8,2-4.1.9-4.1.9-.6,6.8-2.1,11.1-6.5,17.2-4.2,6.1-8.1,10.2-11,13.4-3.7,3.7-4.3,7.2-4.3,7.2s-.3-1.4-.1-3.4c.2-2.1-.8-5.4-.8-5.4,0,0-.5,10.4-2.7,11-2.1.7-3.6-3.5-3.6-3.5,0,0-.5,9.7-4,11.7-3.3,1.9-5.7-.6-5.7-.6-1.1,4.7-3.3,10.1-6.8,11.5-3.4,1.4-5.8-1.8-5.8-1.8-1.9,5.2-3.5,8.6-3.5,8.6,0,0,.9,8.1-2,18.7-3.1,10.4-7.8,14.3-10.1,15.6-2.3,1.4-5.8,1.9-7.9-2-2.1-3.9,0-8.8,2.9-10.5,2.9-1.6,6.2-2.1,7.6.4,1.3,2.5.6,5-1.8,6.4-2.3,1.4-3.8.1-3.7-1.6,0-1.7,2.9-2.7,2.9-2.8-.2-1.2-2.5-2.3-4.9,0-2.4,2.2-1.3,6,1.5,6.7,2.8.8,8.4-2.1,11.8-11.5,3.2-9.5,2.1-16.8,2.1-16.8-2.9,2.1-3.4-5.9-3.4-5.8-1,5.4-3,11-6.7,12.8-3.7,1.9-5.2-2.5-5.3-2.5.1,0-5,10.4-7.2,10.1-2.5-.4-2.2-7.2-2.2-7.2-.8,3.8-4.2,11-8,12.8-3.2,1.7-4.7-1.4-4.7-1.4,0,0-5.9,9.1-10.1,6.9-5.2-2.8,1.5-14.4,1.4-14.4-4.9,1.7-7,5-7,5,1.2-5.7,11.3-11.7,18.1-14,6.7-2.4,9.6-7.3,9.5-7.3-.1,0-.3-7.4.8-22.1h0s0,0,0,0ZM428.1,383.2c2-3.2,5.5-7,5.5-7,1.4-4.1-.6-10.1-4.9-10.6-3.8-.5-3.3,8.1-3.4,8.1,2.9,2.7,2.9,9.5,2.9,9.5h0ZM421.2,392.4c.5-1.1,1.5-2.6,3.2-4.2.9-.9,1.7-2,2.3-3.1,0,0-.1-3.1-1.6-5.5-1.3-2.1-3.3-3.9-4.6-2.9-1.5,1.2-2.5,3.6-2.3,6.3.2,2.4,1.4,5,2.1,6.8.6,1.5.8,2.7.8,2.7h0ZM348.5,438.4s-4.3,1.1-8.5,3.6c0,0-5.2,8.3-.5,11.2,3.4,1.9,6.7-5,6.6-5,0,0-1.2-2.7,2.3-9.8ZM357.9,439.9c1-4,1.2-8.2.9-10.2,0,0-3.9,5.8-8.1,7.5,0,0-5,9,.5,10.8,2,.6,5.6-3.2,6.8-8.1h0Z"/>
  <path class="st0" d="M245.8,472s5.2-8.2,11.7-20.1c6.5-11.9,16.2-27.5,27.3-43.7l.9-.2s-1.9,3-5.3,8.2c-2.7,4.4-6.5,10-10.8,17.9-8.6,15.3-16.4,30.6-16.4,30.6,0,0,5.9-5.5,12-5.8,5.1,0,4,5.2,4,5.2,0,0,4.8-5.8,11-8.9,0,0-2.1-4.7,4.4-10.6,4.7-4.2,12.5-6,17.9-2.8,5.2,2.9,10,13.3-8.8,26.8,0,0,7.6.5,15.1-7.1,0,0,0-5.2,3.2-9.3,3.1-4.3,5.6-4.8,7.7-3.7,1.2.6,1.1,2.7,0,3.8-1.1,1.3-2.9,1.7-4-1.3,0,0-2.6,1.4-3.5,5.6-1,5.3.8,7.3,3.8,6,3-1.5,7.1-5.2,9.6-14.2,0,0,.3-.9.8-3.7.8-3.9,2.1-10.4,3.6-17,2.4-10.6,7.3-26.7,11.4-49.8l.8-.6c-.2,0-2.1,11.9-6.8,34.3-5.2,22.5-7,31.4-7.3,36-.6,4.7-1.3,9.6-.2,10.1,1,.4,3.4-2.6,4.1-3.8.3-.6.7-1,1.2-.8.3.1.3.6-.1,1.3-.9,1.5-3.1,4.4-5.7,6.7-2.6,2.3-4.2,1.4-2.7-5.5,0-.1-4.3,9.3-11.8,11-3.8.9-4.3-3.7-4.3-3.7,0,0-4.9,4.7-11.1,7.6,0,0-5,10.3-12.4,17.8-7.4,7.4-14.6,9-18.4,6.1-3.1-2.3-1.7-6.3.9-8.8,2.1-2,6.1-2.9,9.1-1.7,3.7,1.5,1.8,4.7,1.1,5.8-.6,1-2.5,3-4.9,1.7s-.5-4.4,3.3-4.8c0,0-3.7-2.4-6.3-.3-3.1,2.6-1,5.4,1.8,6.2,2.8.9,7.2-.8,10.8-3.9,3.7-3,9.8-9.7,13.1-17.5,0,0-4.5,1.1-10.2,1.1-5.7-.2-9.8-.4-13.3,1.3-3.5,1.4-6.4,3.2-14.4,2.4,0,0-5,8.7-11.4,14.4-5.8,5.2-10.6,5.3-14.3,1.9,0,0-10.4,5.8-15.4.8-2.9-2.9-.7-7.4,1.4-9.3,2.9-2.5,7-3.6,10.1-1.6,6.5,4.1-1.8,10.4-5,7.3-1.2-1.2-.3-2.5.5-3.1,1.2-.9,2.8-1.4,4.1.3,0,0,.9-1.6-1.6-2.7-2.5-1.3-4.7-.2-5.9.8-1.2,1-1.9,3.5.9,5.7,2.9,2.2,7.8,1.8,12.5-.8,4.9-2.5,12.3-9.3,15.6-14.6,0,0-14.2-2.6-18,1.8l-2.9.5c0-.1,6.4-6.3,16.8-5.6h0q0,0,0,0ZM256.9,476.1l-5.5-.5c0,0-8.5,11.2-14.9,14.4,0,0,2,2,4.5,1.5,2.5-.5,6.1-2.7,10.4-7.9,4.3-5.3,5.5-7.5,5.5-7.5ZM263.2,473.5s6.1.6,9.7-1c3.5-1.7,5.4-3.2,9-3.7s5.9,0,7.8-.5c2-.3,7.6-3,11.9-8.6,4.3-5.6,3.9-12.2-2.5-14.9-5.1-2.3-10.3-.6-14,2.2-2.1,1.7-3.7,4.1-3,6.9,0,0,3.1-1.6,5.7-.3,2.6,1.2,2.7,3.9,1.6,5.7-1.1,1.7-3.1,3.1-6.1,1.4-2.5-1.4-2.8-4.4-2.8-4.4,0,0-3.8,1.8-7.3,5.3-3.5,3.5-7.9,8.9-10.1,11.8h0s0,0,0,0ZM284.9,458.9c1.5.9,2.7.8,3.3-.1.7-.9-1-4.4-5.7-3.2,0,0,.4,2.1,2.4,3.3h0ZM251,468.3l-2.3,3.8c5,.3,11.4,1.4,11.4,1.4,0,.1,7.6-6.2,4-10.2-4-4.8-13,5-13.1,5ZM320.4,469.8c-.5-.2-1.5.8-2.3,3-.7,2.2-.6,6.5.9,6.9,1.3.3,2.5-1.7,2.4-2.3-.2-1.3-1.9-.9-1.6-4.3.2-1.9,1.2-3,.6-3.2h0ZM316.1,473.1c-1.1,0-1.5,2.3-1.8,3.7-.3,1.4-1.4,3.7-2,4.9-.6,1.2-.8,3.2,0,3.3.8,0,1.3-.7,2.2-2.2.9-1.5.7-3.7,1.1-6.1.3-1.7,1.5-3.5.5-3.5h0ZM313,476.6c.5-1.9.6-2,.6-3.3,0-1.2-1.5-1.1-1.6.6,0,1.1-1.4,3.6-2.5,4.4-1.3,1-2.8,3.2-.9,3.6,2,.4,4-3.5,4.4-5.4h0ZM452.8,360.1c-.5.2-.7,1.6.3,3.7,1,2.1,4.1,5.1,5.5,4.3,1.2-.6.6-2.9,0-3.3-1.1-.8-2,.6-4.1-2-1.2-1.5-1.1-3-1.8-2.7h0ZM451.9,365.5c-.8.8.5,2.7,1.2,3.9s1.5,3.6,1.9,4.9c.4,1.3,1.6,2.8,2.3,2.3.6-.5.5-1.4,0-3.1-.4-1.7-2-3.1-3.4-5.2-1-1.4-1.4-3.6-2.1-2.9h0ZM452.2,370.1c-1-1.7-1-1.9-1.9-2.8-.9-.9-1.9.2-.7,1.6.8.9,1.5,3.6,1.2,4.9-.3,1.6.2,4.3,1.8,3.2,1.7-1.1.5-5.2-.5-6.9h0ZM473.7,306.2c-.4.3-.2,1.7,1.3,3.5,1.5,1.8,5.2,3.9,6.4,2.8,1-.9-.1-3-.8-3.2-1.2-.5-1.8,1.1-4.5-.9-1.5-1.1-1.9-2.6-2.5-2.2h0ZM474.3,311.6c-.6,1,1.1,2.5,2.1,3.5,1,1,2.4,3.1,3.1,4.3.7,1.2,2.3,2.4,2.8,1.7.5-.6.1-1.5-.7-3-.8-1.5-2.7-2.5-4.6-4.1-1.3-1.1-2.2-3.1-2.7-2.3h0ZM475.6,316c-1.4-1.4-1.4-1.5-2.5-2.2-1.1-.7-1.8.7-.3,1.7.9.6,2.3,3.1,2.5,4.4.2,1.6,1.2,4.1,2.6,2.7,1.4-1.4-.9-5.2-2.3-6.6ZM190.3,472.7c-.3-.4-1.7-.3-3.5,1.2s-4,5.2-3,6.4c.9,1,3-.1,3.3-.7.6-1.2-1.1-1.8,1-4.5,1.2-1.5,2.6-1.8,2.2-2.4h0ZM184.8,473.2c-.9-.6-2.5,1.1-3.5,2.1-1,1.1-3.2,2.3-4.3,3-1.2.7-2.4,2.3-1.8,2.7.6.5,1.5.2,3-.6,1.6-.8,2.6-2.7,4.2-4.5,1.2-1.3,3.2-2.2,2.3-2.7h0ZM180.3,474.5c1.4-1.3,1.6-1.4,2.3-2.5.7-1.1-.7-1.7-1.7-.3-.7.9-3.1,2.2-4.5,2.3-1.6.1-4.1,1.2-2.7,2.5,1.4,1.4,5.2-.7,6.6-2h0ZM137.2,451c-.2-.5-1.6-.7-3.7.3-2.1,1-5.2,4-4.4,5.4.6,1.2,2.9.6,3.4.1.8-1.1-.6-2,2.1-4.1,1.5-1.2,3-1.1,2.7-1.8h0ZM131.8,450.1c-.8-.8-2.7.5-3.9,1.2-1.2.7-3.6,1.4-4.9,1.8-1.3.4-2.9,1.6-2.4,2.2.5.6,1.4.5,3.1.2,1.7-.3,3.2-1.9,5.2-3.3,1.5-1,3.6-1.4,2.9-2.1h0ZM127.2,450.3c1.7-.9,1.9-1,2.8-1.8s-.2-1.9-1.5-.8c-.9.7-3.6,1.4-4.9,1.1-1.6-.3-4.3.2-3.3,1.8,1.1,1.7,5.2.6,6.9-.4h0ZM40.3,344.8c.1-.5-.9-1.5-3.2-2-2.3-.5-6.6.2-6.8,1.7-.2,1.3,2,2.2,2.7,2.1,1.3-.3.7-2,4.1-2.1,1.9,0,3.1.9,3.3.2h0ZM36.4,341c-.1-1.1-2.4-1.2-3.8-1.4s-3.8-1-5-1.5c-1.3-.5-3.3-.4-3.2.4,0,.8.8,1.2,2.4,2s3.7.3,6.1.5c1.7,0,3.7,1.1,3.5,0h0ZM32.6,338.3c1.9.2,2.1.3,3.3.2,1.2-.1,1-1.6-.8-1.5-1.1,0-3.7-1-4.6-2-1.1-1.2-3.6-2.4-3.7-.5-.1,2,3.9,3.6,5.8,3.8Z"/>
  <path class="st0" d="M24.7,282.5s6.4,2.9,9.6,12.9c1.7,5,2,15.4,2.1,15.4-.1,0,2.6,9.3,11.9,13.7,9.8,4.4,14.1-.5,14.5-5.8.5-5.5-1.9-13.1-7.7-15.6-6-2.5-9.5,2.8-7,6,0,0,3.5-1.7,4.4,1.3,1,3-3.9,4.2-6,.3-2.2-3.9-1.2-8.7,2.2-10,3.3-1.3,10.1.9,14.5,7.6,4.6,6.6,5.3,14.7.8,18.1-4.3,3.2-16.4,4.9-27.2-10.8,0-.1-.3,9.7,8.9,18.4,0,0,4.5-.7,9.3,1.8,4.7,2.6,8.3,5.4,7,8.7-1.5,3.6-6.3,1-5.5-1,.6-1.2,1.9-1.5,1.9-1.5,0,0,1.1-2.5-4.2-4.3-5.4-1.9-7.3,1-7.6,2.1-.3,1.1,1,6.4,10.1,9.3,0,0,14.1,1.1,30.4,2.7,19.2,2.4,43,4.6,43,4.3l.6.7c0-.2-10.6-.5-31.4-2.4-15.5-1.4-31.2-2.2-36-2.5-4.7-.3-10.9-.4-11.2.9-.3,1.3,2.5,3.8,6.3,5.4,0,0,5.7-.2,13,4,0,0-.8-2.9-7.8-7.9,0,0,4,.3,11.8,8.7,4.6,5,5,10.7,8.8,15.5,2.5,3,5.8,3.8,5.8,3.8,0-.2,9.5-.9,27.7-1.9,18.2-1.2,30.7-2.8,30.7-2.8l.7.5c0,0-14.2,1.6-33.8,3.9-19.6,2.2-31.3,3.1-34.6,3.6-3.4.4-6,1-6.1,2,0,1,4.3,3,8.7,4.2,0-.1,15.8-2.4,35-3.9,21.9-1.2,44.1-3.8,44.1-4l.9.5c0,0-19.1,2.8-41.8,4.9-12.8,1.5-27.7,3.4-27.8,3.5,0,0,9.2,2.1,6.7,7.8,0,0,11,2.2,9.5,7.4-1.5,5.5-13.6,3.7-13.6,3.6,0,0,4.2,3,10.2,4.5,0,0,18.7-6,36.3-11.9,17.7-5.7,30.2-8.4,36-10.3l.7.4s-16.8,4.3-35.2,10.8c-15,5.6-28.5,10.3-28.5,10.4.1,0,12.6.6,10.9,7.1,0,.1,11.3.9,10.2,6.7-.9,5.3-13.2,5.1-13.2,4.9,0,0,4.3,3.1,13.5,4.7,0,0,4.6-2.3,10.9-3.1,0,0-9.2-1-5.9-7,4.3-8.4,20-11.3,45.2-19.6l1.1.5c0,0-12.4,4.4-30.1,11-15.1,5.2-12.4,11.6-11.4,12.6.9.9,3.4,1.8,5.1,1.6l2.2,1.1c0,.2-12.9,1.7-14.5,6.1-1,3.1,11.4,2.9,11.4,2.7,0,0,1.9-2.6,7.1-3.7,5.3-1.3,6.9,0,7.5,1.9.7,2.3-3.2,4.9-4.8,2.1-1.2-1.9.3-2.6.3-2.6,0,0-3.2-.8-5.9,2.8-3.3,4.4-2,7.9,6.3,6.4,0,0,2.6-3.3,7.2-5,4.6-1.7,7.5-1.5,9.4,1.4,1.3,2-3.6,6.7-5.4,2.9-1.1-2.4,2.1-3,2.1-3,0,0-1.6-2.1-5.9,1.1-3.6,2.6-4.2,5.3-3.5,6.8.6,1.3,7.7,3.1,14.6-3.3,3.5-3.3,7.7-2.7,7.7-2.7,0,0-3.2,1.7-6.8,4.8-3.6,3.2-5.2,4.9-4.9,5.5.3.7,3.4,0,4.9-.8,1.5-.7,8.1-5.9,16.2-13.2,6.3-5.7,14.2-12.1,22-18.2,9.5-7.3,17.1-14.8,21.9-17.9h.9c-.1,0-8,6.4-21.4,18.2-14.7,12.8-25.8,23.5-31.8,28.7.1.1,13-5.7,16.6-1.4,1.8,2.2.9,6.4-2.5,9.5-3.4,3.1-11.3,5.1-13.6,2.3-1.5-1.8-.8-3.5.6-4.3s2.7-.4,3.4.2c1.4,1.2-.7,2.7-.7,2.7,0,0,2.9,2.2,6.7-.3,3.3-2.2,3.2-7.3,1.6-8.3-1.6-1-5.3-2.4-14.7,1.8,0,0-8.6,7.3-20,13.6-6.5,3.5-14.9,4.9-21.2,2l1.1-.6s3.6,2.3,9.8.8c6-1.8,8.6-2.8,22.3-13.1,0,0-5.4,1.6-6.8.2-1.4-1.3,2.5-4.2,2.5-4.2,0,0-8.1,3.1-12.2.3-2.3-1.7-1.1-4.8-1.1-4.8,0,0-8.8,1.7-11.6-1.5-2.3-2.4.6-5.9.6-5.9,0,.1-10.9.4-13.9-1.2-2.9-1.5-.5-4.8.3-5.4,0,0-9.3-.4-16.9-5.2-7.6-4.7-12.8-10.6-16.6-13.4-3.8-2.8-4.8-1.5-6.2-3,0,0,4.9-.2,7.9-1.2.2.1-17.3-3.2-29.5-24,0,0,2.3.3,5.5-.6,0,.1-9.5-3.4-10.8-5.9-.7-1.5,3.3-2.5,4.6-2.6,0,.1-9.2-3.1-11.5-6.8-2.1-3.7-.5-5.3.3-5.7,0,0-5.6-1.9-7.8-6.7-2.3-4.8,2.3-5.9,2.3-5.9,0,.1-8.8-4.9-9.8-7-1-2,3.1-2.4,5.9-2.3,0,0-8.2-3.7-11.2-9.8-1.8-3.6,2.3-5,2.2-5,0,0-5.8-5.1-9.2-13.7,0,0-11.6-4.9-18.3-10.7-6.5-5.8-11.6-12.7-9.2-17.8,2.4-5,7.8-2.6,9.5-1.3,1.7,1.3,4.9,4.2,3.6,9.2-1.2,4.5-5.3,2.3-6.4,1.5-1-.7-2.4-2.5-1.5-4.4.8-1.9,4.4-1.6,3.8,2.6,0,0,1.7.8,2-1.7.3-2.4-1.2-4.7-2.9-5.2-2.4-.7-3.9,1.1-4.4,2.7-.6,1.7-1.1,4.6,3.4,9.7,4.3,5.2,10.4,9.9,19.9,13.5,0,0-1.7-6.4-2.2-14.1-.5-7.8-.3-17.3-6.3-18.6l-1.5-3.5h0q0,0,0,0ZM113.5,426.4c1.8,1.7,3.7,3.3,5.6,4.8,5.9,2.9,12.6-.4,13.1-3.4.5-3.1-6.6-4.1-6.7-4.1-3.5,3.3-12,2.8-12,2.8h0ZM103,419.2c4.7,2.3,8.3,5.5,8.4,5.4,3.1,1,11-.7,10.7-3.5-.3-3.3-8.8-4.8-8.8-4.8-6.2,2.1-10.2,2.9-10.2,2.9h0ZM86.7,402.8c2.4,2.9,6.7,6.4,6.7,6.3,5.7,2.6,11.6-.2,11.9-2.7.3-2.9-6.3-4.7-6.3-4.7-2.8,3.5-12.2,1.2-12.2,1.1h0ZM80.7,394.6c1.7,3.2,4.4,6.3,4.4,6.3,4.7,1.5,11.7.1,11.4-2.6-.3-2.7-5.8-4.8-5.8-4.9l-10,1.2h0ZM71.4,372.5c-2,0-4.3.6-5.2,2.3-1.1,2.4,1.9,4.9,5,6.2,3.3,1.5,7.3,1.9,7.3,1.9l7.8-.8c-5-2.4-8.7-8.8-8.7-8.8,0,0-3.2-.9-6.2-.8h0ZM72.6,364c-4.4-2.9-11.5-3.7-13.4-.7-2.2,3.5,5.5,7.1,5.4,7,4-1.6,12.2,1.6,12.2,1.5-2.3-3.9-4.1-7.9-4.2-7.8h0Z"/>
  <path class="st0" d="M57.6,373.5c-3-6.1-5.9-10.5-8.1-12.1-2.2-1.6-7.2-2.8-6.1-.4,1.1,2.4,4.1.8,4,.8,4,3.7,3.7,6.8,8,14.6,2.4,4.7,5.9,7.3,8.1,9,4.6,3.5,7.4,2.6,7.4,2.6-6.3-2.6-10.5-8.4-13.3-14.6h0ZM53.4,374.9c-.2-.6-2.5-1.8-3.9-1.7-1.4,0-4.4-1-5.6-1.7-1.2-.7-2.4-1-1.8.2s2.6,2.9,4,2.9c1.4.1,4.1,0,5.2.4,1.8.6,2.4.5,2.1-.1h0ZM113.5,65.2c.6,0,1.3-1.1,1.2-3.5,0-2.4-1.5-6.4-3.1-6.3-1.3,0-1.8,2.4-1.5,3,.6,1.2,2.1.3,2.9,3.6.5,1.9-.2,3.2.5,3.2h0ZM116.5,60.7c1.1-.4.7-2.6.5-4.1s.1-4,.3-5.3c.2-1.3-.3-3.3-1.1-3.1-.8.2-1.1,1-1.4,2.7s.5,3.7.9,6.1c.3,1.7-.3,3.9.7,3.5h0ZM118.3,56.4c.2,2,.2,2.1.5,3.3.4,1.2,1.8.6,1.3-1.2-.3-1.1.2-3.8,1-4.9.9-1.3,1.6-4-.3-3.7-1.9.3-2.7,4.5-2.5,6.4h0,0ZM92,83.3c.5,0,1.1-1.3.8-3.7-.3-2.4-2.3-6.2-3.9-5.8-1.3.3-1.4,2.6-1.1,3.2.7,1.1,2.1,0,3.3,3.2.7,1.8.2,3.2.9,3.1h0ZM94.3,78.4c1-.5.4-2.7,0-4-.3-1.4-.3-3.9-.3-5.2,0-1.3-.7-3.2-1.4-2.9-.7.3-.9,1.2-1.1,2.9-.2,1.7.9,3.6,1.6,5.9.5,1.7.2,3.8,1.1,3.4h0ZM95.6,74c.4,1.9.4,2.1.9,3.2.5,1.1,1.9.4,1.2-1.3-.5-1.1-.3-3.8.3-5,.7-1.4,1.1-4.2-.8-3.7-1.9.5-2.1,4.9-1.7,6.7ZM31.8,177.8c.5-.3.4-1.7-1-3.6s-4.9-4.3-6.2-3.3c-1,.8,0,3,.5,3.3,1.2.6,1.9-1,4.4,1.3,1.4,1.3,1.7,2.7,2.3,2.3h0ZM31.6,172.4c.6-.9-1-2.6-1.9-3.6-.9-1.1-2.1-3.3-2.7-4.5-.6-1.2-2.1-2.5-2.6-1.9-.5.6-.2,1.5.4,3.1.7,1.6,2.5,2.7,4.2,4.5,1.2,1.2,2,3.3,2.6,2.5h0ZM30.6,167.8c1.2,1.5,1.3,1.7,2.3,2.4,1,.8,1.8-.5.5-1.7-.9-.7-2-3.2-2-4.6s-1-4.2-2.4-2.9c-1.4,1.4.4,5.3,1.7,6.7h0ZM20.8,232.7c.4-.4,0-1.7-1.9-3.2-1.8-1.5-5.8-3-6.8-1.7-.8,1.1.7,2.9,1.3,3.1,1.3.3,1.6-1.4,4.6.2,1.7.9,2.3,2.3,2.8,1.7h0ZM19.3,227.5c.4-1.1-1.5-2.3-2.7-3.1-1.2-.8-2.8-2.7-3.7-3.7s-2.7-1.9-3-1.2.1,1.5,1.2,2.9c1,1.4,3.1,2,5.2,3.3,1.4.9,2.8,2.7,3.1,1.8h0ZM17.2,223.3c1.6,1.1,1.7,1.3,2.8,1.8,1.1.5,1.6-1,0-1.7-1-.5-2.8-2.7-3.1-4-.4-1.6-2-3.8-3-2.2-1,1.7,1.7,5,3.3,6.1h0Z"/>
  <path class="st0" d="M61.6,138.2c.8,1.9,7.5,17.6,17.5,41.5,10.1,23.7,17.8,38.2,17.6,38.3l-.2,1.1c.1,0-6.9-13.2-15.3-31.6-11.1-25.6-15.7-35.2-16.1-34.9.3,11-6,8.6-6.1,8.7,0,.1,2.9,11.2-3.7,11.7-6.8.7-8.2-12-8-12-3.7,10.1-2.2,15.2-2.2,15.2,3.1,2.5,4.4,6.4,4.4,6.4,1.5-10.4,9.1-6.8,17,4.7,7.5,11.8,16.5,32.8,16.8,32.6l-.2,1.3c-2.5-5.4-4.8-9.5-11.6-22.4-6.6-13.1-13.8-19.4-17.9-17.7-4,1.7-1.1,8.6-1,8.6l-.4,1.4c-1.8-4.9-6.1-11.2-9.4-11.6-2-.2-2.9,1.8-2.5,4.5.5,3.5,1.2,6.9,1.2,6.9,3.6,1.2,9.2,8.4,7,13.1-2,4-6.1-.4-4.6-2.3,1.3-1.7,3.4.4,3.4.4,1.8-4.4-7.9-9-10.2-6.7-2.4,2.7,1.2,8,1.2,7.9,6.9,3.2,9.1,11.2,7.7,14.5-1.4,3.4-6.3,1.1-5.1-1.7,1.2-2.7,3.5-.1,3.5-.2.7-4.1-1.4-5.9-4.5-7.6-2.6-1.4-5-2.6-5.8,0-1.9,6.1,8.1,14.2,8.2,14.1,3.4,4.4,2.7,6.3,2.7,6.3-.8-2.1-4.2-4.7-6.4-6.6-2.3-1.8-5.5-4.9-6-3.9-1.3,2.6,3,8.7,3,8.6,8.4,7.3,18.9,15.2,30.7,25.8,11.6,10.8,24.1,22.1,24.1,22l.2,1c0,0-12-10.9-24.2-21.2-12.5-9.9-26.3-20.6-26.2-20.6,3.6,5.3,3.7,8.8,2.7,10.4-1,1.5-4.6,4.5-10.8-.5-6.3-5.1-5.2-10.7-3.4-12.8,1.8-2,4.2,2.3,3.1,3.7-1.1,1.4-2.7,0-2.7,0-2,5.7,7.3,9.8,10.7,6.8,3.1-2.6-2.9-10.5-2.9-10.6-8.3-5.6-16.6-15.2-16.6-15.3-12.7-16.9-7.8-25.2-7.9-25l.7,1.3c-2.4,7.7,3.2,16.4,9,22.8,5.4,5.9,11,10.2,11,10.2-2.2-3.7-3.9-9.7-2.9-11.2.9-1.5,4,1,4,1-1.3-2.5-3.4-9-2-11.2,1.3-2.3,4.1-1.2,4.1-1.2-1.1-1.6-3.7-8.8-1.3-11.1,2.3-2.3,5.4-.7,5.4-.7,0,0-.8-3.4-1.3-6.7-.4-2.6-.7-4.9,0-6.7,1.8-4,5.5-1.6,5.5-1.6-3.8-14.8,9.5-32.1,13.4-38.2,2.8-4.9,2.6-5.9,2.6-6,.9,1.7.6,5.2,1.2,7.2h0s0,0,0,0ZM53.5,148.8s-3.8,6-4.9,9.1c0,0,.8,11.5,7.3,11,3.9-.2,1.8-8.5,1.8-8.6,0,0-4.5-1.6-4.2-11.6ZM62.9,147.1s-2.7-4.7-3.4-8.3c0,0-1.2,3.5-4.8,8,0,0,.6,11.5,6.6,10.3,3.5-.6,1.5-10,1.7-10h0ZM210.8,10c6.4,3.7-1,14.1-7.8,11.9-7.6-2-1.7-9,2-7.6,3.6,1.3,0,5.3-3,4.5,0,0,.8.8,2,1.1,1.7.5,4,.5,5.5-1.6,2.6-3.4-3.4-7.8-9.9-4-6.3,3.8-10.6,7.3-17.6,23.3,0-.2,13.6-2.2,13.8-7.7l2.5-1.6s-.3,3.5-5,7c-5,3.9-9.4,5-9.4,5.1.1,0-3,3.9-6.6,18.6-2,8.7-6,20.1-9.2,32.2-3.6,12.1-8.6,27.7-8.4,27.7l-.8.6c0,0,3.4-11.8,7.4-27.7,4-15.9,7.5-26.5,10.3-38.2,0,0-2.7,4.8-6.6,5.7-3.2.9-4.6-2.8-4.6-2.9,0,0-2.5,7.2-7.5,9.8,0,0,1.4,4.5-2.4,10.2-3.6,5.5-12.4,13.9-19.7,10.3-6.8-3.2-6.6-17.1,2.9-27.7,0-.1-11.7,4-13.3,13.1,0,0,1.6,2.8,1.3,7-.5,4.5-2.7,8-5.6,8.7-3.3.8-4.3-4.9-.9-5.3,2.5-.3,1.4,3,1.4,3,0,0,3.9-1.7,3.3-6-.6-4.2-4-7-5.7-6.7-1.7.2-4,5.5-4.8,9.4-1.1,5.3.9,10.4,1.4,14.6.8,4.1,1.5,9.5,1.9,29.4.6,19.7,2.4,34.3,2.8,39.3l-.9,1.5c.4-.2-1-6.7-3.2-33.7-1.2-27.5-3.6-42.8-4.7-46.1-.7-3.4-1.3-7-2.2-6.7-.9.3-4,5.5-5.6,13.2.1,0,2,10.5,4.2,27.3,2,16.9,3.1,35.2,3.2,35.1l-.5.8c-.3.2-2.7-22.6-4.4-35.8-2.2-13-3.3-19.2-3.3-19.1-.1,0-2.4,8.8-7,7.9-4.5-.8-4.8-8.3-3.2-14.6,0,0-4.5,3.5-5.2,8.5.1,0,4.3,9.2,7.2,23.2,2.8,14.1,5.6,27.6,5.9,33.8l-.5.9c.1-.1-.6-6.1-5.1-23-4-17.1-5-20-5.2-19.9,0,0-2,5.3-5.9,2.1-3.8-3.3-8.5-7.9-9.2-3.4l-.5,3.4s3.2,1.1,4.3,7.6c1,6.3-4.3,13.5-6.3,8.2-1.1-3.3,2.3-5.5,3.2-1.1,0,0,2.8-2.9,1.2-6.8-1.7-4-5.2-5.5-6.3-4.9-1.6.7-2.7,5.4-1.6,11.8.9,5.6,3.9,7.9,2,11.6,0,0-.1-2-3.8-7.6-3.6-5.5-10.7-17.9-11.1-28.5-.9-10.6,4.8-28.3,10.2-30.5v2.4c0,0-6.5,3.8-8.1,16.8-1,9.1-.9,15.3,9.3,34.5,0,0-1.8-11.4,2-14.6,1.9-1.6,4.5.9,4.5.9-.1,0,.6-8.5,2-9.7,1.9-1.6,9.4,8.7,11.9,7.9.8-.3,1.4-2.8,1.4-2.8,0,0-2.5-10.3-5.2-10.1-2.4.2-3.7,6.4-3.7,6.4-.2-1.7,0-3.5.3-5.2.4-1.8.9-3.7,3.1-5.8,1.8-1.7,3.4,1.9,3.4,1.9,0,0,.3-7.7,6.9-13.2,6.6-5.4,7.9-6.5,9.1-9,0,0-.6,3.6-.3,5.7.3,2.2.8,4.5.8,4.5-.1,0,2.6-11.4,7.2-15.8,1.3-1.2,2.5,6.2,2.5,6.2,0,.1,1.5-10,7.4-13.3,1.8-1.1,4,2.4,4,2.4,0,0,2.4-7.9,11.3-13.1,0,.1,1.1-9.1,6.6-19.1,5.4-10.1,11.7-15.1,17.1-14,5.3,1,3.3,7.1,2.4,9-1.2,2.5-5.3,5.9-9,5.5-3.7-.5-3.5-4.1-2.1-6.7,2-3.8,7.1-3.2,6.1,0-.8,2.6-4.2,2.5-4.7,1.6,0,0-.9,3.5,3.3,2.6,3.9-.8,4.7-3,5.1-4.6s-.9-3.7-3.7-4.1c-3.4-.4-8.2,2.6-12.8,11.1-4.9,8.8-5.8,14-6.9,17.9,0,0,5.7-2.6,10.4-3.9,4.6-1.4,8.9-2.4,8.4-5.9l2.4-3.2s1.4,2.8-3.1,7.6c-4.9,5.4-12.4,6.2-12.4,6.3,0,0-8.1,5.1-9.4,14.8-1.3,9.6,5.7,14,13.3,9.8,7.7-4.1,11-9.5,9.6-15,0,0-3.1,1.8-5.7,1.2-2.6-.6-3.7-2.4-2.9-4.8.9-2.8,8.4-4,9.9,1.4,0,0,3.7-1.8,6.1-7.7,2.5-6.1,2.4-8.2,4.3-11.6,0,0-7.9,2.7-12.7,11.3,0,.2-.3-8.9,17.7-17,1.4-4.4,2.9-8.7,4.6-13,2.4-6.3,11.4-15,17.5-12.7-.1,0,9-7.8,15.7-4.1h0q0,0,0,0ZM152.4,63.4c-1.6-.3-3.3,0-3.5.9-.1.6,1.1,1.9,2.9,2,1.7.1,3.5-.3,3.8-.6,0,0-.6-1.8-3.1-2.3ZM100.5,88.2c-2,1.9-4,3.7-6.1,5.4-.7,1.9-2.4,9.2,1.8,11.5,4.1,2.4,6-6.5,6.1-6.5l-1.8-10.4h0ZM180.6,41.4s-2.8.8-4.8,1.2c-2.1.3-5,1.6-5,1.6,0,0-4.9,6.5-1.7,9.8,3.7,4.1,8.2-3.2,8.3-3.3,1.8-6.2,3.3-9.4,3.3-9.4h0ZM180,38c7.1-16.4,11.5-20.1,11.3-20.1-4-1.5-9.6,4.1-12,8.9-2.4,4.9-4.6,12.6-4.6,12.6,1.8-.6,5.3-1.4,5.3-1.4h0Z"/>
  <path class="st0" d="M190.1,47.2c-1.6.5-2.2,1.9-1.9,2.9.3,1,1.4,1.9,2.8,1.5,1.4-.4,1.8-2,1.6-2.7-.2-.7-.9-2.1-2.5-1.6h0ZM249.5,20.2c.4.3,1.7-.2,3.1-2.1,1.4-1.9,2.5-6,1.2-6.9-1.1-.7-2.9.9-3,1.5-.2,1.3,1.5,1.5.2,4.6-.7,1.7-2.1,2.5-1.5,2.9h0ZM254.6,18.3c1.1.3,2.1-1.7,2.8-2.9s2.4-3.1,3.4-4.1c.9-1,1.7-2.8,1-3.1-.8-.3-1.4.3-2.7,1.4-1.3,1.2-1.8,3.3-2.9,5.5-.8,1.5-2.5,2.9-1.5,3.2h0ZM258.6,15.9c-1,1.7-1.1,1.8-1.5,3-.4,1.2,1.1,1.5,1.7-.2.4-1.1,2.4-3,3.7-3.5,1.5-.5,3.7-2.2,1.9-3.1-1.7-1-4.8,2.1-5.8,3.8h0ZM470.6,183.6c-.2.5.6,1.6,2.9,2.4s6.5.7,6.9-.9c.4-1.3-1.7-2.5-2.3-2.4-1.3.2-1,1.9-4.3,1.5-1.9-.2-2.9-1.3-3.2-.6h0ZM473.9,187.9c0,1.1,2.3,1.5,3.7,1.8,1.4.3,3.7,1.5,4.8,2.1,1.2.6,3.2.8,3.2,0,0-.8-.6-1.3-2.1-2.3-1.5-.9-3.7-.8-6.1-1.2-1.7-.3-3.5-1.5-3.5-.5h0ZM477.4,191c-1.9-.5-2.1-.6-3.3-.6-1.2,0-1.1,1.5.6,1.6,1.2,0,3.5,1.5,4.3,2.6.9,1.3,3.2,2.9,3.6,1,.4-1.9-3.3-4.1-5.2-4.5h0ZM321.8,55c-6.8-.1-5.6-4.3-4-5.4,1.5-1,2.6-.8,3.4,0,1,1,1.2,3.1-1.4,3.3,0,0,3.3,2.1,7.6-1.7,2.3-2.1,4.3-6.3,2.2-7.9-1.8-1.5-6.8,0-11.8,2.4,0,0-6,6.2-11,5.5,0,0,3.6-1.7,6.9-4.9,3.3-3.1,4.4-5.1,4.1-6-.2-1-6.6-.3-11.4.9,0,0-2.8,2.7-6.8,4.4,0,0,5.5,2.3,9.7.7,0,0-6.8,4.1-19.1.6-12.4-3.5-15.6-2.3-18.4-1.4,0,0-10.5,11.6-21.1,23.3-11.1,11.5-25.6,25.5-25.5,25.6l-1.2.2c0-.1,11.2-11,24.6-26.1,13.1-15.2,26.7-31.2,28-32.7,1.4-1.5,3.5-4.5,2.9-4.9-.6-.3-4.6.6-8.5,3,0,0-11.4,12.8-20.1,22.4-9.3,9.5-24.7,21.8-24.6,22l-1.4.2c-.1,0,13.5-11.8,23.8-22.6,7.4-8.2,12.1-15.1,12-15.1,0,0-9.7,5.5-11.1-2.5-.1,0-10.5,8.5-13.4,3.3-2.9-5,7.9-12.8,8-12.6.1,0-5.4-1.6-20.5,6.4,0,.1,8.3-9.4,26.7-9.7,14.8.1,14.2,3.1,22.9,2,0,0,6.5-8.6,17.3-13.6,10.9-5,16.4-5.3,18.8-3.5l-2.2,1c0,.1-3.7-2.9-13.5,2.8-9.9,5.5-20.4,17.2-20.3,17.1,0,0,8.5-4.6,11.8-2.6,1.5.9-2.5,4.8-2.5,4.8,0-.1,8.5-4.1,12.4-3.1,3.1.9,2.1,3.5,2.1,3.5,0,0,8.2-2,11.6,0,3.3,1.9-.5,5.4-.5,5.4l8.4-1.4c-.2,0,13.3-10.2,20.8-11.6,7.4-1.7,17.4-1.6,18,5.4.5,7-10.9,8.5-13.6,3.2-3.5-6.4,6.7-8.1,7.6-4.7.8,3.1-4.1,3.3-5.4,1.2,0,0-1.1,1,.5,3.2,1.4,1.8,3.2,2,5,1.6,1.8-.5,3-2.7,2-5.2-2.3-5.5-11.3-4-14.3-2.9-3,.8-11.8,4-18,9.6,0,0,3.5-.5,4.3.6.6.8-3.1,4.3-3.1,4.3,0,0,10.3-4.5,13.9.2,3.4,4.6-6.1,12.5-12.7,12.1h0q0,0,0,0ZM256.6,29.6c-3.7-.2-9.8-.8-9.8-.8,0,0-9.2,5.1-6.7,9.4,2.3,4.3,9.5-1.5,9.6-1.5.9-3.9,6.8-7.1,6.9-7.1h0ZM270.8,29.5c-4,.8-11.9.1-11.9.2,0,0-7.1,4.6-5,8,2.7,4.6,9.8-.7,9.9-.6,2.3-2.5,4.6-5.1,7-7.6h0ZM292.7,33.9c-2.6-4.1-13.2,2.9-13.1,3.1l-5.7,6.3c4.6-1.9,12.5-1,12.5-.9,0,0,8.4-4.8,6.3-8.4h0ZM297.7,45.1c2.7-1.5,8.9-6,7.2-8.9-1.7-2.9-8.4-.1-8.3-.1-1.1,3-8.2,6.6-8.1,6.6,2.5.9,9.3,2.4,9.3,2.4h0Z"/>
  <path class="st0" d="M341.3,69c-3.5-6.4-11-1.5-9.5,1.4,1.4,2.9,4.7.6,4.3-.7-.5-1.3-1.7-1.2-1.7-1.2,3-3.8,8,4.6,2.5,6.6-4.9,1.9-13-4.6-9.9-10.6,3.1-6.3,19.6-6.2,19.7-6l1.5-1.1c-2.2.1-10.1.7-10.8-2.1-.6-2.6,4.9-8.8,14.2-11.9,18.8-5.8,26.2-2.9,26.1-3.1l1.7-.5c-2.6-2.4-24.1-.8-34.9,4.5-5.4,2.4-7.9,4.9-9.7,7.5-4.1,6,1.2,6.5,1.2,6.5-5.9.9-18.2,6.2-12.1,14.1,3,4.2,8.5,5.4,12.5,4.1,4-1.3,6.8-4.5,5.1-7.6h0Z"/>
  <path class="st0" d="M412.2,149.9c-11.5-.7-19.4-1.6-26.5-3.2l-.7-.9c0,0,8.4,2.4,25.3,2.6,17.6.3,28.2-.9,30-1.3,1.8-.3,5.2-.6,5-1.9,0-.9-5.5-3.9-9.5-5,0,0-12.5,1-25-.9-12.6-1.8-19.9-3-26.4-4.9l-.7-.8s11.2,2.8,26.2,3.9c9.1.6,15.8.3,15.8.2,0,0-5.6-4.4-1-7.9,4.7-3.5,9.4-5,5.3-7.7-3.6-2.4-6.9-3.6-6.9-3.6,0,0-15,2-31.6,3.1-16.8.8-36.2,1.8-46.3,1.8l-1.1-.8c0,0,13.3-.2,33-1.8,19.7-1.5,36.6-3.5,36.6-3.5,0-.1-10.7-4.4-8.8-9.6,1.9-5.5,13.6-1.9,13.6-1.8,0,0-4.2-4.9-10.8-6.5,0,0-5.9,1.8-8.8,2.1-3,.3-6-1.3-8.6-3,0,0,5.6.9,9.3,0,3.7-1,8.9-2,8.4-3.6-.5-1.7-8.2-3.7-8.2-3.7,0,0-13,3.8-21.9,6.5-9.1,2.6-18,5-25,6.7-7,1.5-15,3.5-14.9,3.5l-1-.7c0,0,10.9-2.5,19.4-4.9,8.3-2.8,25.4-8.7,33.8-11.2,0-.2-12.7-1.5-11.4-7.6,0,0-7.4-.6-14.9-6.7-7.6-6.3-15.9-11.3-23.3-12.2,0,0,3.4-.4,6.8-1.8,5-2.1,9.6-3.8,10.5-5.6,1.1-2.3-7.1-2.3-7.1-2.2l.9-1c0-.1,9.5-.5,11.1,2.6.6,1.1-4,3.3-4,3.3,0,0,4-1.1,7.3-.5-.2-.1,19.3-5.5,27.6-4.1,8.1,1.3,14.8,3.8,14.8,9.7s-5.5,5.4-7,5.3c-2.9-.2-6.7-2.1-7.6-6.2-1.1-4.3,6.9-5.9,7.9-1.7.6,3.1-3.9,2.8-4.6,1.3,0,0-.9.8.6,2.9,2.2,2.9,6.9,2.6,6.3-2.7-.7-4.6-9.4-6.9-12.4-7.1-2.9-.3-10.8-.5-22.3,3.5,0,0,5,1.1,2.4,5.2,0-.2,11.3-.5,11.3,5.4-.1,3.9-5.8,4.9-7.3,5.1-1.6.2-7.5.9-7.4.9,0,0,5.3,6.2,11,5.4,0,0,1.8-4.2,9.5-4.9,4.6-.5,9.3,2.1,10.1,4.7.3,1.4.5,3.5-2.2,4-4.1.8-4.1-4.6-.7-4.5,0,0-2.5-3.4-6.6-2.6-3.7.8-5.5,3.8-5.2,6.4.3,2.1,2.9,4.1,10,4.3,0-.1,12.5-2.9,19.4-3.7,6.7-1,21.1.2,27.8,7.2l-1.1.3c0,0-3.5-4.5-15.1-5.7-10.1-1.1-23.1,2.8-23,2.9,0-.1,11.5,3.1,12.2,6,.4,1.4-4.4,2.1-4.4,2.1,0,0,8.2,1.5,13.9,8.5,5.5,7.1,7.3,10.1,8.7,11.2,0,0-2.3-.7-5.5-.2,0,0,8.4,4,9.5,6.3.8,1.7-2,3.1-2,3.1,0,0,8,3.2,9.3,8.9.6,2.9-4.8,3.1-4.8,3.1,0,0,10.9,5.1,11.1,7.7.2,2.4-6.7,2-6.7,2,0-.2,13.3,5.5,12.7,11.8-.6,5.9-14.4-.1-14.3,0,0,0,.3,4.1,6.5,8.2,0,0-4.7-.8-8.5-6.3-3.8-5.7-2.3-6.6-7.8-13.2,0,0-8.4.6-19.9-.1h.1c0,.1,0,.1,0,.1ZM366.9,62.4c-4-4.6-19.3,2.4-19.2,2.5,4.9.7,10.8,4.5,10.8,4.4,3-.2,11.6-3.2,8.5-7h0ZM378.2,69.7c-1.3-3.8-8.2-2.7-8.1-2.7-2.7,2.9-10,3.4-10,3.5,2.5,1.7,6.6,5.2,6.6,5.2,4.9,0,12.8-2.2,11.5-6h0ZM426.2,115.9c-1.8-3.4-5.5-7.8-5.5-7.7,0,0-8.5-4.1-11.2.8-2.7,4.6,7.3,7.7,7.3,7.9l9.5-.9h0ZM439.4,133.9c-1-3.7-6.4-5.1-6.4-5.1,0,0-1.1.3-5.4,3.3-4.7,3.3,1,5.4,1,5.4,0,0,11.9.4,10.8-3.7h0ZM449,154.2c-6-4.8-14.2-4.1-14.2-4.1,5,4.1,6.5,9.4,6.4,9.4,3.2,1.4,9,1.4,10.6-.3.8-.9-.4-2.9-2.8-4.9Z"/>
  <path class="st0" d="M408.8,80.3c1.7.2,6.8-.2,8.8-.6,2-.4.3-2-2.1-2.2-2.4-.2-4.5,1-6.6,1.2s-3.2-.4-3.1.4c0,.9,1.3.9,3,1.2h0ZM431.4,94.1c-2.4-.4-4.5.6-6.7.5-2.2,0-3.2-.7-3.2.1,0,.9,1.2,1.1,2.8,1.4,1.6.4,6.8.4,8.9.2,2.1-.2.5-2-1.8-2.3h0ZM465,156.3c1.5.8,6.4,2.5,8.4,3,2,.5,1.1-1.7-1-2.9-2.2-1.1-4.6-.9-6.6-1.5s-2.8-1.7-3.1-.8c-.2.8.9,1.4,2.3,2.3h0ZM460.5,160.6c2.9,9.5,8.8,6.7,8.8,6.7-2.4,0-5-3.2-6.6-9.1-1.1-4.1-4.1-11.2-7.6-13.9-3.8-3.2-7.5-3.1-7.5-3.1,8.7,2.9,10.2,11.3,12.8,19.4ZM491.9,243.5c1.9-3.2-5.5-10.6-8.4-3.6-1.9,4.4,0,7.7,3,10.2,3,2.6,6.5,3.6,8.8.4,4.8-7-2.5-17.1-8.3-23.7-5.9-6.7-14.4-12.9-14.5-12.9-1.8-11.5-10.9-21.4-10.9-21.3,0,0,6.8-.3,4.3-6.1-2.7-6.3-10.5-10.6-10.4-10.6,0,0,9.9,1.7,5.6-3.8-5.2-6.2-9.1-7.2-9.1-7.2,0,0,6.7,5,6.2,6.8-.5,1.7-3.8,1.5-7.2,1.2-3.3,0-9.6-.8-31.7-4.1-21.6-3-37.9-6.3-37.9-6.3l.6,1c13.4,2.8,22.2,3.8,35.3,6.5,12.8,2.7,33.7,5.4,33.8,5.5,2.5,1.1,6.9,3.1,9.9,7,3,4.1-.3,7.7-6,6.5-5.6-1.1-5.9-6.4-5.8-6.5.9,1.8,4.4.9,3.2-2.1-1.1-3-7.6-2.5-4.4,4.6,2.8,6.1,11.8,7.5,11.9,7.5,11.1,12.8,9.1,25.6,9.1,25.4-6.3-14.8-20.8-21.2-25.6-13.1-2.8,4.6-3.4,10.1-2.6,15.4.6,4.9,1.9,6.9,4.3,10.7,5.7,9.8,18.5,9.7,16.4-.3-2.3-9.8-11.1-7.4-10-2.3,1,5.2,4.8,2.9,4.7,1.1-.2-1.8-2.3-2.2-2.3-2.2.5-1.8,2.3-1.5,2.3-1.5,5.2,2,4.1,9.8-.1,10.4-4.2.6-12.1-6.2-12.3-14.2-.3-8.9,2.1-19,10.8-17.4,9.1,1.7,14.3,17.7,14.1,17.7-1.6,7.3-1.8,10.9.7,17.4,2.1,6.5,7.5,9.8,7.5,9.8l-1.4-4.3c-6.4-3.6-5.3-9.3-4.1-15.3,1.2-6,1-14,1-14,7,4.8,9.4,6.9,15.7,15.2,6.5,8.4,5,13.4,3.9,15.3-1.1,1.9-4,3.3-5.7,1.4s-1.9-3.7-1.3-5.8c.5-2.1,2.7-2.3,2.7-2.3-1.5,3.3,2.2,6.4,3.9,3.7h0c0,0,0,0,0,0Z"/>
</svg>