<?xml version="1.0" encoding="UTF-8"?>
<svg id="Layer_1" xmlns="http://www.w3.org/2000/svg" version="1.1" viewBox="0 0 2500 2500">
  <!-- Generator: Adobe Illustrator 29.8.2, SVG Export Plug-In . SVG Version: 2.1.1 Build 3)  -->
  <defs>
    <style>
      .st0 {
        fill: #160c06;
      }

      .st1 {
        fill: #fff;
        fill-opacity: 0;
      }

      .st1, .st2 {
        fill-rule: evenodd;
      }

      .st2 {
        fill: #f4efcb;
      }
    </style>
  </defs>
  <path class="st1" d="M588.1-392.1h2500v2500H588.1V-392.1Z"/>
  <path class="st2" d="M1185.7,2224.5c-.2,3.4.8,10.6,8.6,10.9,7.8.2,12.5-5.5,12.7-10.3.3-5.5-4-10.1-9.5-10.4h-.6c-6.6,0-11,6.3-11.2,9.8ZM1750.4,1959.5c4.7-47,7.9-119.3,7.3-119l4.7-4c-.2.2-1.8,49.1-5.9,122.1-2.9,56.4-.5,98.4.6,113.9,1.3,15.4,4.3,60.8,13,58.9,9.2-1.6,21.4-33,21.3-32.8,0,0-6.3-15.9-4.6-32.9,2-16.8,14.9-38.2,30.2-37.9,15.4,0,10.6,25.8,0,26.8s-8.9-13.4-8.9-13.4c-19.2,11.4-1.9,60.8,12.1,55.7,22.2-9.1,25.7-53.8,25.2-53.9,0,0-1.6-13.2-3.5-19.9-1.9-6.8-1.8-11.8,1.9-17.3,3.8-5.6,8.6-16.4,8.6-16.4-1.9,37.5,7.7,75.6,15.6,73.8,8-1.9,17.5-36.8,17.3-36.7-5.4-12.8-8-25.1-4.8-41.8,2.5-12.8,12.2-31,26-29,14.1,2,15.7,26.7,2.7,27.7-13.9.9-9.5-15.8-9.5-15.8-16.3,11.4-5,59,15.8,56.2,21-2.7,26-42.2,25.7-42.1-7.4-11.4-10.8-20.2-9.4-41.6,1.2-21.5,14.9-38.1,28-35.4,9.8,1.9,12.1,22,2,24.9-12.1,3.4-12.3-9.1-12.3-9.1-10.1,9.1-11.7,24.3-3.1,39,8.6,14.8,20.8,17,31.5,6.6,10.9-10.4,7.8-46.8,7.7-46.7-.6-.2-23-67.8-43.3-142.1-21.2-86.2-42.7-175.7-42.9-175.2l2.5-4.5c-.7.2,18.9,72.8,49.1,181.3,18.5,65.7,39,117.4,40.9,123.4s13,32.7,19.5,29.5c8.5-4.3,8.3-38.4,8.2-38.3-.3.4-36-95.9-61.9-197.9-25.4-102.3-47.4-170.2-46.5-170.4l1.8-4.6c-.6.6,18.5,59.8,46.9,163.2,23.8,87.8,56.5,165,56.9,164.7,0-.2.5-26.1,10.9-37.3,10.8-11.2,22.7,1,22.7,1,.8-.2-7.4-57,23-57.1,31.3-1,30,60.2,29.7,60.7,20.7-27.9,20.5-51.7,20.3-51.8-12.4-16.8-16.2-43.3-16.3-43.2,0,0-4.9,21.9-16.1,25.2-12.2,3.7-43.1-18.1-57.4-59.8-16.6-53.2-19.8-144.9-21.1-144.7l1.5-3.7c.5-.2,8.4,77.8,25.8,137.7,8.3,27.3,38.5,54.4,51.6,46.4,13.3-7.9,9.8-31.4,9.7-31.4l4.8-9.8c3.6,35.8,19.3,67.4,31.9,66.2,17.1-1.7,14.2-47.2,14.1-47-7.1-4.4-14-9.9-21.4-28.3-7.8-18.5-6.3-40.2,7.1-45.8,13.4-5.7,28.9,14.7,18.6,23.6-8.3,7-19.2-8.9-19.2-8.8-17.6,20.6,26.7,51.5,37.5,42.8,10.9-8.9,6.5-45.1,6.4-45-25.9-19.8-30.8-50.7-28.5-66,1.9-15.5,14.9-15.4,22.4-8.8,7.4,6.6,9.4,14.6,2.9,19.5-6.6,4.8-14.9-6-15-6-13.8,18.6,20.9,53.1,34.2,43.3,15-11.1.5-41.8-8.3-53.1-8.5-11.4-14.7-23-17.3-36.5-3.1-13.6,1-17.2,1-17.2,4,17.1,43.6,69.5,46.9,65.8,6-7.6-1-39.9-1.4-39.9s-39-49.8-82.8-104c-21.3-26.4-40.1-56.1-57.9-80.8-15.5-22.8-31.8-45.1-48.8-66.8-4.1-6-32.2-41.2-32-40.8l.2-4.6c-.4-.4,56.8,65.8,105,135.1,33,43.4,97.6,116.4,97.1,117.1.6-.2-19.8-40.4-2.1-55.2,18.3-17,53.5,6.8,60.7,38.9,4.2,16.2-2.4,41.8-15.4,39.5-5.6-1-14.3-8.6-8.2-18.3,5.7-9.9,14.7-.4,14.8-.4,10.2-24.5-11.1-45.1-29.4-45.6-18.2-.7-19.7,9.6-16.8,24.7,3.2,15.1,8.5,31.3,8.7,31.3,0,0,15.5,17.1,35,45,11.1,16.3,26.8,41.6,36.8,66.5,27.9,74.6,3.6,100.9,4,100.3l-2.5-3.3c12.8-17.8,5.4-52.6-9.9-89.2-15.4-37.3-50.9-83.9-51-83.7,7.9,21.2,6.6,51.8,1.6,56.5-4.4,4-13.9-9.7-14-9.6,1.7,5.2,6.4,41.3-2.2,50.7-8.6,9.1-20,.4-20,.4,0-.2,10.1,35.2-5,56.5-12.5,16.5-25.5,3.4-25.5,3.4.2-.2,1.4,48.4-10.5,61.1-8.4,9.5-19.2,4-19.2,4-2.6,31.5-9.8,51.9-30.1,80-19.7,28.6-37.5,47.5-51,62.3-17.4,17.3-19.9,33.4-19.9,33.5s-1.2-6.3-.6-15.8c.7-9.6-3.6-25.3-3.6-25.3,0-.4-2.3,48.3-12.6,51.4-9.6,3.2-16.6-16.5-16.7-16.5,0-.4-2.2,45.1-18.8,54.5-15.4,9-26.5-2.7-26.5-2.7-5.3,21.9-15.3,46.8-31.5,53.5-16,6.7-27.1-8.6-27-8.5-8.7,24.4-16.2,40-16.2,39.9,0,.3,4.4,37.7-9.1,87.1-14.4,48.6-36.4,66.5-47.2,72.4-10.9,6.3-27.1,8.9-37-9.3s0-41,13.3-48.7c13.6-7.5,29-9.9,35.2,1.9,6.1,11.6,2.8,23.4-8.2,29.8-10.9,6.3-17.8.5-17.4-7.5.3-7.9,13.6-12.8,13.6-13-.9-5.6-11.5-10.7-22.6-.4-11.1,10.4-6.2,27.7,6.8,31.1,13,3.8,39.3-9.6,54.7-53.5,14.9-44.2,9.6-78.3,9.8-78.3-13.6,10-15.7-27.3-15.8-27.1-4.6,25-14,51-31.2,59.7-17.2,8.8-24.4-11.7-24.5-11.6.6.2-23.3,48.6-33.3,47-11.7-1.9-10.3-33.4-10.4-33.3-3.9,17.5-19.7,51.2-37.4,59.7-15.1,7.7-22-6.6-22-6.6.3-.1-27.4,42.2-47.1,32.2-24.4-13.2,7-66.9,6.3-67-22.8,8.1-32.4,23.3-32.5,23.2,5.5-26.4,52.4-54.5,84.3-65.4,31.2-11.4,44.6-34,44.4-34.2-.6-.1-1.6-34.3,3.8-103h0v-.2ZM2069.6,1860.7c9.5-14.7,25.4-32.6,25.4-32.7,6.7-19.3-2.9-46.8-23-49.3-17.5-2.3-15.5,37.7-15.8,37.8,13.7,12.6,13.4,44,13.3,44.1h.1ZM2037.4,1903.3c2.3-5.3,6.9-12.3,14.7-19.7,4.3-4.2,7.9-9.1,10.8-14.3,0,0-.6-14.5-7.5-25.8-5.9-9.7-15.4-18.2-21.2-13.7-7.2,5.6-11.6,16.7-10.5,29.4,1,11.4,6.6,23.2,9.9,31.5,2.9,7.2,3.8,12.6,3.9,12.6h-.1ZM1699.2,2117.5c0-.2-20,5.1-39.5,16.6.3-.1-24.3,38.6-2.1,52.2,15.6,8.9,31.2-23.1,30.9-23.3,0,0-5.7-12.8,10.7-45.5ZM1742.7,2124.7c4.7-18.5,5.8-38.4,4-47.5,0-.1-18.3,27.2-37.7,35,.3-.2-23.1,41.7,2.1,50.1,9.5,3,26.2-15.1,31.6-37.6h0Z"/>
  <path class="st2" d="M1220.8,2274c-.2,0,24.3-38.2,54.6-93.7,30.2-55.6,75.5-128.1,127.2-203.4l4.2-1c0,0-8.9,13.9-24.7,38.2-12.6,20.4-30.2,46.4-50.4,83.2-39.9,71.4-76.5,142.3-76.3,142.4.2-.4,27.4-25.8,56-26.8,23.7-.4,18.8,24.4,18.8,24.4,0,.3,22.4-27.1,51.2-41.3-.3-.3-10-21.8,20.6-49.4,22.1-19.4,58.1-27.9,83.5-13.2,24.2,13.7,46.4,61.9-40.9,124.8-.3.2,35.2,2.5,70.1-32.9,0,0,.2-24.2,15-43.5,14.6-19.8,26-22.5,35.8-17,5.4,3,4.9,12.6.4,17.9-5.3,6.1-13.3,7.9-18.7-5.9,0,0-12.3,6.3-16.1,26.3-4.6,24.9,3.5,33.9,17.9,27.9,13.9-6.8,33.1-24.3,44.9-65.9,0,0,1.4-4.2,3.9-17.3,3.5-18.1,9.6-48.3,16.6-79,11.2-49.4,34-124.2,53.3-232l3.8-2.7c-1.1,0-10,55.5-31.8,159.6-24.2,104.7-32.4,146.2-33.8,167.8-2.7,21.8-6,44.8-.9,46.8,4.8,1.9,15.9-12,19.2-17.9,1.6-2.8,3.4-4.5,5.7-3.7,1.4.5,1.3,2.6-.5,5.9-4,7-14.6,20.3-26.6,31.2-12.3,10.5-19.7,6.3-12.6-25.7.2-.5-20.2,43.2-55,51.1-17.7,4-19.8-17.1-19.8-17.1,0,.3-23,22.1-51.9,35.6.2.3-23.1,47.9-57.8,82.7-34.6,34.3-68,41.9-85.7,28.4-14.3-10.5-8.1-29.4,4-40.9,9.8-9.4,28.6-13.4,42.4-8,17.3,7.2,8.3,22.1,5.2,26.9-3,4.6-11.5,14-22.8,8s-2.4-20.6,15.2-22.2c0,.2-17.4-11.1-29.5-1.3-14.6,12-4.5,25,8.6,29,13.1,4.4,33.5-3.6,50.4-18,17.2-13.9,45.6-45.2,61.2-81.3,0,.1-21,5-47.4,5-26.4-.7-45.5-1.8-61.8,6-16.4,6.7-29.7,14.9-67,11.2,0-.3-23.4,40.7-53,67-26.8,24.1-49.3,24.5-66.8,9,.4.3-48.6,27-71.8,3.9-13.5-13.3-3.2-34.5,6.7-43.1,13.5-11.7,32.4-16.8,47-7.4,30.2,19.2-8.2,48.4-23.2,33.9-5.7-5.6-1.6-11.6,2.4-14.6,5.4-4,13.1-6.4,19.2,1.5,0,0,4.4-7.3-7.4-12.8-11.7-6-22.1-.9-27.6,3.8-5.4,4.6-9,16.5,4.4,26.5,13.4,10.4,36.1,8.3,58.4-3.9,22.6-11.6,57.3-43.1,72.6-67.9-.3.1-66.2-12.2-83.6,8.3l-13.7,2.4c.2-.6,29.9-29.3,78.4-26.1h0l.3.3ZM1272.6,2293.3l-25.6-2.4c.4.3-39.8,52.2-69.4,67.2,0,0,9.4,9.5,20.9,7.1,11.5-2.3,28.4-12.4,48.4-36.8,19.9-24.8,25.6-35.1,25.7-35.1ZM1301.9,2281.1s28.4,2.8,45-4.5c16.5-8,25-14.7,42-17s27.4-.4,36.5-2.1c9.2-1.6,35.5-13.8,55.2-40,19.8-26,18.1-57-11.5-69.4-23.7-10.5-47.8-3-65.4,10.4-9.9,7.8-17,19.1-13.9,32.2,0,0,14.5-7.3,26.7-1.5,12.2,5.7,12.8,18.3,7.6,26.4-5.1,8.1-14.4,14.6-28.5,6.7-11.5-6.6-13.1-20.7-13.1-20.6,0,0-17.8,8.3-33.8,24.9-16.1,16.3-36.7,41.3-46.8,54.7h0v-.2ZM1403.1,2213c7,4.2,12.4,3.9,15.5-.5,3.1-4.3-4.5-20.5-26.7-14.9,0,0,1.8,9.6,11.2,15.3h0ZM1245.4,2256.9l-10.7,17.6c23.2,1.5,53.2,6.5,53.2,6.6.4.5,35.2-28.9,18.7-47.6-18.4-22.2-60.6,23.1-61.2,23.4ZM1568.2,2263.6c-2.4-.8-7.2,3.5-10.7,13.8-3.4,10.4-2.8,30.2,4.4,32.2,5.9,1.6,11.6-7.8,11.1-10.9-.9-6.1-8.7-4.4-7.3-20.1.8-9,5.7-14,2.6-15.1h0ZM1548.2,2279.2c-5.3,0-7.1,10.5-8.4,17s-6.6,17.1-9.4,22.7c-2.8,5.7-3.6,15,0,15.2,3.7.2,6.1-3.2,10.3-10.2,4.2-7,3.4-17,5.2-28.2,1.3-8,7-16.5,2.3-16.5h0ZM1533.9,2295.4c2.1-8.8,2.6-9.5,2.7-15.4,0-5.8-7.1-5.3-7.5,3-.3,5.3-6.6,16.8-11.6,20.6-6,4.5-13.2,14.9-4.2,16.7,9.1,2,18.5-16.3,20.6-25h0ZM2184.4,1753.3c-2.3,1-3.1,7.3,1.6,17.2,4.7,9.9,18.9,23.8,25.5,20.2,5.4-2.9,2.9-13.6.4-15.5-4.9-3.8-9.5,2.8-19.2-9.4-5.5-6.9-5.3-14-8.3-12.6h0ZM2180.6,1778.2c-3.7,3.7,2.3,12.5,5.8,18.1s7.1,16.9,9,23c1.9,6,7.6,13.2,10.5,10.8,3-2.3,2.2-6.5.4-14.4-1.8-8-9.4-14.6-15.8-24.1-4.6-6.6-6.4-16.7-9.8-13.4h0ZM2181.6,1799.9c-4.6-7.8-4.8-8.7-8.7-13-4-4.2-8.7,1-3.3,7.4,3.5,4,7,16.7,5.8,22.8-1.4,7.4.8,19.9,8.5,15,7.8-4.9,2.5-24.3-2.3-32.2h0ZM2281.9,1502.1c-2,1.6-.8,8,6.1,16.4,7,8.4,24.2,18.3,29.7,13.2,4.5-4.2-.5-13.9-3.5-15.1-5.7-2.5-8.3,5.1-20.9-4.3-7.2-5.3-8.9-12.3-11.5-10.2h0ZM2284.6,1527.3c-2.7,4.5,5.2,11.6,10,16.1s11.1,14.6,14.4,19.9c3.3,5.4,10.9,11,12.9,8,2.1-3,.5-6.9-3.3-14.1-3.7-7.2-12.7-11.8-21.3-19.3-6.1-5.3-10.3-14.6-12.8-10.5h.1ZM2290.9,1548c-6.4-6.4-6.7-7.2-11.6-10.4-4.9-3.1-8.2,3.2-1.4,8,4.4,3,10.8,14.4,11.5,20.7.7,7.5,5.7,19.1,12,12.4,6.4-6.7-4.2-24.3-10.5-30.7ZM962.4,2277.4c-1.6-2-7.9-1.3-16.5,5.7s-18.8,24-13.8,29.6c4.1,4.5,14-.5,15.2-3.3,2.6-5.7-4.9-8.5,4.7-20.9,5.5-7.1,12.3-8.4,10.3-11.1h0ZM937.1,2279.6c-4.4-2.7-11.7,5.2-16.3,9.9-4.7,4.9-14.8,10.7-20.1,13.8-5.4,3.1-11.1,10.5-8.2,12.7,3,2.2,6.8.7,14.1-2.7,7.3-3.5,12.1-12.5,19.7-21,5.5-6.1,14.9-10.3,10.9-12.7h-.1ZM916.2,2285.8c6.6-6.2,7.4-6.7,10.6-11.5,3.2-4.9-3.1-8.1-8-1.5-3.1,4.3-14.5,10.3-20.8,10.6-7.5.5-19.2,5.6-12.6,11.8,6.7,6.3,24.3-3.3,30.7-9.4h0ZM715.6,2176.3c-1-2.4-7.3-3.2-17.4,1.5-10,4.7-24.2,18.7-20.7,25.3,2.9,5.4,13.7,2.9,15.6.5,3.9-4.9-2.7-9.5,9.7-19,7-5.5,14-5.1,12.7-8.2h.1ZM690.5,2172.3c-3.6-3.8-12.7,2.2-18.3,5.6-5.6,3.4-16.8,6.6-22.9,8.3-6,1.7-13.3,7.4-11.1,10.3,2.3,2.9,6.4,2.4,14.3.8,7.9-1.6,14.7-8.9,24.2-15.3,6.8-4.5,16.9-6.3,13.7-9.7h0ZM668.9,2172.9c7.9-4.3,8.7-4.5,13-8.4s-.8-8.8-7.2-3.6c-4.1,3.4-16.6,6.4-22.8,5.2-7.4-1.4-20,.7-15.2,8.4,4.9,7.7,24.4,2.8,32.2-1.7h0ZM264.3,1682c.6-2.5-4.1-6.8-15-9.1-10.9-2.2-30.6.8-31.7,8.1-.8,6,9.4,10.4,12.4,9.6,6-1.6,3.4-9.2,19.1-9.6,9-.2,14.4,4.2,15.2.9h0ZM246.2,1664.1c-.6-5.2-11.2-5.8-17.7-6.4s-17.6-4.7-23.5-6.8c-5.9-2.2-15.2-1.9-15,1.8.2,3.7,3.8,5.7,11.1,9.1s17.2,1.5,28.5,2.1c7.9.4,17.2,5,16.5.3h0ZM228.7,1651.7c8.9,1.1,9.7,1.5,15.5,1,5.7-.6,4.5-7.6-3.8-7.2-5.3.3-17.3-4.7-21.6-9.3-5.2-5.4-16.6-11.2-17.2-2.2-.5,9.1,18.2,16.6,27.1,17.7Z"/>
  <path class="st2" d="M191.9,1392c-.2,0,29.6,13.6,44.7,59.9,8,23.2,9.4,71.7,10,71.7-.5,0,12.3,43.2,55.6,64,45.6,20.7,65.5-2.2,67.6-27.1,2.4-25.6-8.9-61-36-72.7-27.8-11.7-44.3,13.1-32.8,28.1,0,0,16.3-7.9,20.7,6,4.6,13.9-18,19.4-28.1,1.4-10.2-18-5.7-40.6,10.2-46.7,15.3-6,46.8,4.4,67.7,35.5,21.6,30.9,24.6,68.2,3.9,84.1-20.1,15.1-76.5,23-126.5-50.2,0-.5-1.4,45.3,41.2,85.5.2,0,21.1-3.3,43.3,8.5,22.1,11.9,38.7,25.1,32.5,40.5-7,16.9-29.3,4.5-25.4-4.8,2.6-5.8,8.7-7.2,8.7-7.2,0,0,5.1-11.8-19.7-20.2-25-8.8-33.8,4.5-35.2,10-1.2,4.9,4.7,29.6,47.1,43.4-.2-.2,65.6,5.2,141.4,12.4,89.5,11.4,200.4,21.5,200.1,20.2l2.7,3.1c-.2-.9-49.2-2.5-146.4-11.1-72.3-6.6-145.2-10.3-167.7-11.7-21.8-1.5-50.8-1.9-52.1,4.2-1.2,6,11.7,17.5,29.1,25.1.2-.2,26.7-.8,60.4,18.4-.2,0-3.6-13.6-36.4-36.6.4-.3,18.6,1.3,55,40.6,21.4,23.3,23.4,49.8,41.1,72.3,11.5,14.1,27,17.6,27,17.5,0-.9,44-4,129-8.9,84.8-5.8,142.7-13.2,143-13l3.2,2.5c-.3,0-66.1,7.6-157.2,18.3-91.2,10.3-145.8,14.3-161.1,16.6-15.6,1.8-28.1,4.8-28.5,9.5-.2,4.6,19.8,14.1,40.3,19.4-.1-.5,73.7-11.1,162.7-18.1,102.1-5.7,205.4-17.9,205.1-18.7l4,2.5c0,.4-88.8,13.2-194.7,22.9-59.4,6.9-128.8,15.9-129.2,16.1.2.3,43,9.6,31,36.5.4.2,51.4,10.2,44.4,34.4-6.8,25.5-63.1,17.2-63.2,16.6,0-.2,19.4,14,47.4,20.9,0,0,87.2-27.8,169.1-55.2,82.2-26.7,140.4-39.2,167.6-48l3.2,1.7c0,0-78.4,19.9-163.7,50.2-70,26.3-132.6,47.8-132.6,48.3.5.2,58.6,2.8,50.6,32.9.2.5,52.6,4.2,47.4,31-4.2,24.7-61.3,23.7-61.3,22.9-.3.1,20,14.5,62.8,22.1,0,0,21.2-10.6,50.6-14.4.2.1-42.6-4.8-27.3-32.7,20.2-39.1,93.3-52.4,210.4-91.1l5.3,2.1c-.2-.4-57.5,20.6-139.9,51.3-70.3,24.4-57.7,53.9-53,58.8,4.1,4.4,15.6,8.2,23.6,7.3l10.1,5.2c.2.8-59.9,7.9-67.4,28.6-4.5,14.5,53.3,13.4,53.2,12.7,0,0,8.7-12.1,33-17.2,24.6-5.9,32.2-.2,34.9,8.8,3.3,10.6-14.7,22.7-22.4,10-5.4-9,1.3-12,1.3-12,0,0-14.9-3.9-27.3,13.2-15.2,20.7-9.5,36.6,29.3,29.7,0-.1,11.9-15.5,33.3-23.1,21.5-7.9,34.9-7.2,43.7,6.7,6.1,9.3-16.6,31.4-25.1,13.4-5.1-11,10-13.9,10-13.9,0,0-7.4-9.9-27.4,5-16.6,12.2-19.4,24.5-16.2,31.7,2.7,6.1,35.8,14.6,67.9-15.5,16.5-15.3,35.8-12.8,35.8-12.7,0,0-14.7,7.7-31.6,22.4-16.9,14.7-24.2,22.6-22.6,25.8,1.6,3.2,15.8.2,22.7-3.5,6.9-3.4,37.8-27.6,75.3-61.3,29.3-26.5,65.9-56.2,102.5-84.9,44.2-33.8,79.4-68.9,102-83.3l4.4.3c-.5-.4-37.3,29.6-99.4,84.4-68.5,59.7-120.2,109.5-147.9,133.8.6.5,60.3-26.6,77.1-6.6,8.3,10.1,4.3,30-11.6,44.4-15.7,14.5-52.5,23.7-63.4,10.5-7.1-8.3-3.9-16.5,2.6-19.8s12.7-2,15.9.9c6.3,5.8-3.1,12.7-3.1,12.7,0,.2,13.4,10.4,31-1.4,15.2-10.2,14.8-33.9,7.6-38.8-7.6-4.8-24.6-11.4-68.6,8.3,0,.2-39.9,34.2-93.3,63.3-30.1,16.4-69.2,23-98.8,9.2l5-2.8s16.6,10.9,45.8,3.9c27.9-8.2,40.2-13.1,103.7-61.2,0,0-25.3,7.5-31.8,1.1-6.4-6.2,11.6-19.4,11.5-19.5.2,0-37.7,14.2-56.7,1.2-10.6-7.8-5-22.2-5-22.2.3,0-41.1,7.7-54-6.9-10.5-11.3,2.9-27.4,2.9-27.4,0,.6-50.9,2-64.6-5.7-13.7-7.1-2.3-22.3,1.3-25,.4-.2-43.5-1.9-78.8-24.3-35.6-21.8-59.6-49.5-77.1-62.4-17.6-12.9-22.2-6.8-28.9-13.9,0,.2,22.7-1.1,36.6-5.7,1.1.6-80.7-15-137.3-111.6,0,0,10.5,1.4,25.8-2.6-.2.6-44.2-15.7-50.1-27.6-3.2-6.8,15.5-11.6,21.3-12.3-.3.5-42.6-14.6-53.5-31.5-9.9-17.1-2.4-24.6,1.3-26.5.3,0-26.1-8.7-36.5-31.3-10.7-22.3,10.8-27.5,10.7-27.5-.3.5-40.9-22.9-45.5-32.7-4.6-9.5,14.6-11.3,27.3-10.8-.2.4-38-17.4-52.3-45.4-8.3-16.6,10.5-23.1,10.4-23.1.3,0-27.1-23.7-42.8-63.9-.3.4-54-22.7-85.1-50-30.3-26.8-54.2-59.1-42.8-82.9,11-23.5,36.4-12,44.2-6.2,8.1,6.1,23,19.5,16.7,43-5.6,20.9-24.7,10.5-29.6,6.9-4.8-3.4-11-11.7-7.1-20.6,3.9-8.8,20.3-7.5,17.7,12,0,0,8.1,3.5,9.3-7.7,1.6-11.3-5.4-21.9-13.7-24.2-11.4-3.2-18.1,4.9-20.6,12.7-2.7,7.7-5.2,21.3,15.7,45.3,20.2,24,48.4,45.9,92.5,62.7-.3,0-7.7-29.8-10.3-65.6-2.5-36.1-1.4-80.5-29.2-86.8l-6.8-16.4h0l.2-.4ZM605,2061.9c8.3,7.9,17.1,15.3,26.3,22.2,27.5,13.4,58.5-1.8,60.8-15.9,2.3-14.2-30.9-19.2-31.1-19.2-16.3,15.2-56,13.2-56,12.9h0ZM556.3,2028.3c21.7,10.7,38.8,25.4,38.9,25.3,14.3,4.8,51.3-3.1,49.7-16.5-1.5-15.4-41-22.2-41.1-22.4-28.8,9.8-47.6,13.6-47.5,13.6h0ZM480.2,1952.1c11.4,13.7,31,29.6,31.2,29.3,26.5,12.3,53.8-.8,55.2-12.6,1.6-13.5-29.4-21.9-29.5-22-12.9,16.1-56.7,5.5-56.9,5.3h0ZM452.2,1913.8c7.9,14.8,20.3,29.2,20.4,29.1,21.7,6.8,54.4.5,52.9-12.2s-27.1-22.4-26.9-22.7l-46.4,5.8h0ZM409.2,1810.7c-9.5.4-20.1,2.7-24,10.7-5.3,11.1,8.7,22.7,23.4,29,15.5,6.9,33.9,8.8,33.8,8.9l36.2-3.5c-23.5-11.2-40.6-41.1-40.3-41.1,0,0-14.8-4.3-28.9-3.9h-.2ZM414.6,1771.2c-20.4-13.7-53.6-17.2-62.6-3.2-10.3,16.2,25.4,32.9,25.2,32.7,18.8-7.5,56.6,7.3,56.8,7-10.6-18.1-19.3-36.6-19.5-36.5h.1Z"/>
  <path class="st2" d="M344.7,1815.6c-13.9-28.3-27.5-48.9-37.9-56.2-10.3-7.3-33.4-13.1-28.4-1.9,5.2,11.1,18.9,3.8,18.8,3.9,18.6,17,17.4,31.5,37.3,68,11.2,21.7,27.3,33.9,37.8,42,21.6,16.4,34.6,11.9,34.4,12.1-29.2-12.1-49.1-39-62.1-67.8h.1ZM325.4,1822c-1.1-3-11.8-8.2-18.2-8.1-6.6.3-20.7-4.7-26.2-7.7-5.5-3.1-11.2-4.6-8.2,1s11.9,13.3,18.4,13.7c6.5.5,19.3,0,24.3,1.7,8.2,3,11.1,2.4,9.9-.6h0ZM605.2,380.4c2.6,0,6-5.3,5.8-16.4,0-11-7.1-29.6-14.6-29.1-6.1.4-8.3,11.2-6.9,13.9,2.8,5.5,9.8,1.4,13.4,16.6,2.1,8.7-1.1,14.8,2.2,14.9h0ZM619.2,359.3c4.9-1.8,3.2-12.3,2.4-18.9s.6-18.5,1.6-24.5c.9-6.1-1.3-15.2-4.9-14.2-3.6,1-4.9,4.7-6.5,12.7s2.3,17.3,4.3,28.6c1.3,8-1.2,18,3.2,16.3h0ZM627.4,339.2c.9,9.1.7,9.9,2.5,15.5,1.8,5.5,8.3,2.7,6.1-5.4-1.6-5.3,1-17.8,4.6-22.9,4.3-6.2,7.6-18.5-1.4-17.2-9,1.4-12.7,20.8-11.6,30h-.2ZM504.9,464.8c2.5-.3,5.1-6.1,3.6-17.1-1.6-11-10.8-28.7-18.1-27.2-6,1.2-6.7,12.3-5,14.8,3.4,5.2,9.8.2,15.3,14.9,3.2,8.4.8,15,4.2,14.6h0ZM515.9,441.8c4.7-2.3,1.9-12.4.3-18.8-1.6-6.4-1.4-18.1-1.3-24.4,0-6.2-3.2-15-6.7-13.6-3.4,1.4-4.1,5.5-4.9,13.5-.8,8.1,4.3,16.8,7.5,27.6,2.2,7.7.8,17.8,5.1,15.7h0ZM521.8,421.2c1.9,8.8,1.8,9.7,4.2,14.9,2.5,5.2,8.7,1.8,5.5-5.9-2.1-4.9-1.3-17.9,1.6-23.4,3.4-6.7,5-19.5-3.6-17-8.7,2.5-9.6,22.6-7.7,31.4ZM224.8,904.6c2.1-1.4,1.7-7.8-4.8-16.8s-23-20.2-28.7-15.5c-4.7,3.9-.2,14,2.5,15.5,5.5,2.9,8.7-4.5,20.6,5.9,6.7,5.9,7.7,12.8,10.5,10.9h-.1ZM223.8,879.2c2.9-4.3-4.6-12-8.9-16.9-4.3-4.9-9.7-15.3-12.6-20.9-2.8-5.5-9.9-11.7-12.2-8.8-2.4,2.8-1.1,6.8,2,14.2,3.1,7.5,11.5,12.7,19.6,20.8,5.7,5.8,9.5,15.4,12.1,11.6h0ZM219.1,858.1c5.8,6.8,6.1,7.7,10.7,11.1,4.6,3.5,8.5-2.5,2.1-7.8-4.1-3.3-9.5-15.1-9.5-21.4s-4.6-19.6-11.1-13.3c-6.6,6.3,1.9,24.5,7.8,31.3h0ZM173.6,1160.1c1.7-1.9-.3-8-8.8-15.1-8.6-7.1-27.2-14-31.7-8-3.6,4.9,3.2,13.6,6.2,14.3,6,1.5,7.4-6.4,21.4.8,8,4.1,10.6,10.6,12.9,8.1h0ZM166.4,1135.7c1.7-4.9-7-10.5-12.5-14.2-5.4-3.7-13.2-12.5-17.3-17.2s-12.4-8.9-14-5.6.6,6.8,5.4,13.3c4.8,6.5,14.4,9.5,24.1,15.4,6.7,4.2,12.9,12.7,14.4,8.3h0ZM156.8,1116.4c7.3,5.3,7.8,6,13.1,8.2,5.3,2.3,7.6-4.5.1-8-4.8-2.3-12.9-12.4-14.5-18.4-2-7.3-9.3-17.8-14.1-10.2-4.8,7.7,7.9,23.2,15.3,28.4h0Z"/>
  <path class="st2" d="M363.5,720.3c3.6,8.9,35,82,81.3,193,47.1,110.3,82.9,177.7,82,178.3l-1.1,4.9c.6-.2-32-61.3-71.4-147.3-51.9-119.1-73.2-163.8-74.9-162.4,1.5,51-28,40.1-28.2,40.3-.2.5,13.3,52.2-17,54.5-31.8,3.1-38.2-55.8-37.4-56-17.2,47-10.2,70.7-10.2,70.7,14.5,11.6,20.5,29.9,20.5,29.9,7.1-48.5,42.5-31.8,79.1,21.7,35.1,54.8,76.7,152.7,78.4,151.7l-1.1,6.1c-11.8-25.2-22.5-44.1-54.2-104.3-30.7-61-64.1-90.4-83.1-82.6-18.6,7.7-5,40.2-4.7,40.1l-1.8,6.3c-8.3-22.8-28.4-52.3-43.8-54.2-9.5-1.1-13.4,8.6-11.7,20.9,2.4,16.1,5.7,32.2,5.6,32.2,16.7,5.7,42.9,39.1,32.7,61.1-9.1,18.8-28.4-1.9-21.6-10.9,5.9-7.8,15.6,1.8,15.6,1.7,8.3-20.5-37-42-47.4-31.3-11.4,12.8,5.5,37.2,5.5,37,32.3,15.1,42.5,52.2,35.7,67.5-6.7,15.6-29.4,5.1-23.9-7.7,5.5-12.7,16.5-.6,16.5-.7,3.3-18.9-6.5-27.5-21-35.3-12-6.5-23.2-12.2-27,.4-8.9,28.5,37.8,66,38.2,65.6,16,20.3,12.5,29.5,12.5,29.5-3.9-9.8-19.5-22.1-29.9-30.9-10.5-8.6-25.4-22.9-27.8-18.3-6.2,11.9,13.9,40.3,13.9,40.2,39,34.1,88.1,70.7,143.1,120.1,54.2,50.4,112.2,102.8,112,102.5l.7,4.7c0,.3-55.7-50.8-112.5-98.9-58-46.3-122.2-96-122-96,16.7,24.7,17.2,40.9,12.5,48.4-4.8,7.2-21.5,21-50.3-2.3-29.4-23.9-24.2-50-15.9-59.5,8.6-9.5,19.5,10.7,14.4,17.2-5.1,6.6-12.4,0-12.4,0-9.4,26.6,33.9,45.7,49.6,31.8,14.4-12.1-13.6-48.9-13.7-49.2-38.5-26-77.1-70.9-77.2-71.1-59.1-78.9-36.3-117.4-37-116.4l3.3,6c-11.2,35.9,14.9,76.5,42,106.2,25.2,27.5,51.2,47.3,51.1,47.3-10.4-17.1-18-45.1-13.6-52.1,4-7,18.4,4.6,18.4,4.6-6.2-11.5-15.9-41.7-9.3-52.3,6.2-10.6,19.2-5.6,19.2-5.6-4.9-7.5-17.2-40.9-6-51.7,10.7-10.7,25.3-3.3,25.3-3.3,0,0-3.9-15.9-6.1-31.3-1.7-12-3.3-22.9.3-31.1,8.3-18.7,25.4-7.4,25.4-7.5-17.7-69.1,44.3-149.2,62.5-177.8,13-23,12.3-27.6,12.1-27.7,4.4,7.7,3,24,5.7,33.6h0v-.2ZM325.7,769.6s-17.7,27.7-22.8,42.5c-.3.3,3.5,53.6,34,51.4,18.2-.9,8.2-39.6,8.3-39.9.4,0-20.8-7.4-19.5-54ZM369.4,761.6s-12.4-21.9-16-38.6c.2,0-5.7,16.3-22.5,37.4-.2.4,2.7,53.7,30.9,47.8,16.3-2.9,7.1-46.5,7.7-46.6h-.1ZM1058.1,123.4c30,17.2-4.5,65.6-36.5,55.2-35.2-9.3-7.8-41.7,9.4-35.4,16.6,6-.2,24.7-14,20.9,0,0,3.6,3.5,9.2,5.3,7.7,2.5,18.5,2.4,25.8-7.6,12.3-15.9-15.8-36.5-46.1-18.8-29.2,17.8-49.3,34.1-82,108.4,0-.7,63.3-10.4,64.3-35.8l11.5-7.4c0,.1-1.4,16.1-23.5,32.7-23.4,18.3-43.9,23.4-43.8,23.7.6.1-13.9,18.1-30.5,86.7-9.5,40.7-27.8,93.7-42.8,150.1-16.7,56.2-40.1,128.8-39.3,129.1l-3.8,2.7c0-.3,16-55,34.5-129,18.8-74.2,35-123.2,48.1-177.8,0,0-12.8,22.3-30.7,26.5-15.1,4.1-21.2-13.2-21.2-13.3,0,.4-11.8,33.3-35.1,45.5,0,0,6.7,21.1-11.2,47.7-16.7,25.5-57.5,64.5-91.7,48-31.7-15-30.8-79.8,13.7-128.9,0-.6-54.6,18.5-61.9,61,0,0,7.6,13.1,5.9,32.5-2.1,20.8-12.4,37.2-25.9,40.4-15.2,3.8-19.8-22.7-4.3-24.7,11.8-1.4,6.7,14.1,6.7,14,.2,0,18.3-7.7,15.3-27.9-2.9-19.4-18.7-32.4-26.7-31.2-8,1-18.6,25.4-22.5,43.7-5.2,24.6,4.3,48.2,6.7,67.8,3.5,19.2,7,44.2,8.7,136.7,3,91.9,11,159.9,12.9,183l-4.4,6.8c2-1-4.8-31.1-14.7-156.9-5.7-128.2-16.8-199.2-22.1-214.7-3.4-15.9-6-32.5-10.2-31.3-4,1.3-18.4,25.4-25.9,61.6.5-.2,9.5,48.7,19.7,127,9.2,78.7,14.6,164,14.8,163.6l-2.4,3.5c-1.2.9-12.5-105.1-20.6-166.8-10.2-60.5-15.4-89.5-15.5-89.1-.5,0-11.2,40.8-32.8,36.8-21-3.5-22.2-38.8-15.1-68.1.1,0-20.9,16.3-24.2,39.6.5,0,19.9,42.6,33.3,108.2,12.9,65.5,26,128.3,27.5,157.5l-2.4,4.1c.5-.5-3-28.6-23.6-107.2-18.8-79.8-23.3-93.1-24.1-92.7,0,0-9.5,24.7-27.4,9.6-17.9-15.2-39.6-36.6-42.7-15.6l-2.1,15.8c0,0,14.9,5.3,19.9,35.5,4.7,29.5-19.8,62.8-29.1,38-5.3-15.4,10.9-25.5,14.8-5.1-.1-.2,13-13.4,5.4-31.6-7.8-18.4-24.2-25.4-29.4-23-7.6,3.2-12.7,25-7.4,54.9,4.4,26.3,18,37,9.2,54.2,0,0-.5-9.2-17.8-35.5-16.7-25.5-50-83.4-51.9-132.8-4.1-49.4,22.2-131.9,47.6-142.2l-.4,11.2c.7,0-29.9,17.8-37.4,78.1-4.6,42.3-4.1,71.2,43.4,160.6-.4.2-8.4-53.2,9.3-67.8,8.7-7.4,20.9,4,20.9,4-.5,0,2.7-39.5,9.4-45.3,8.9-7.6,43.6,40.3,55.5,36.6,3.7-1.3,6.4-13.1,6.5-13.1-.2.3-11.5-47.9-24.3-47.1-11.3,1-17.3,29.9-17,30-.8-8-.4-16.2,1.3-24.1,1.8-8.6,4.3-17.2,14.6-27.1,8.4-8.1,15.9,9,16,9-.2,0,1.2-35.7,31.9-61.4,30.7-25.2,37-30.1,42.2-42,0,0-3,16.6-1.3,26.7,1.6,10.1,3.8,21.1,3.7,21-.5,0,12.1-53.3,33.6-73.5,6.2-5.8,11.6,28.9,11.7,28.9,0,.5,6.8-46.7,34.5-61.9,8.4-4.9,18.4,11.2,18.4,11.2-.2,0,11-37,52.7-61,.3.5,5.2-42.2,30.7-88.7,25.2-47,54.4-70.1,79.4-65.4,24.9,4.5,15.2,33,11.2,42.1-5.6,11.8-24.8,27.6-42.1,25.4-17.3-2.2-16.4-19.1-9.7-31.4,9.5-17.5,33.2-15,28.5.3-3.5,12.1-19.4,11.7-22.1,7.4,0,0-4.3,16.1,15.5,12.2,18-3.7,21.7-14,23.9-21.3s-4.1-17.4-17.4-19.3c-16-1.8-38.1,12.1-59.8,51.6-22.7,40.9-27.1,65.3-32.1,83.4.2.3,26.4-12.3,48.4-18.3,21.6-6.7,41.5-11.2,39.1-27.4l11.1-15.1s6.6,13.1-14.4,35.3c-22.6,25.3-57.5,28.9-57.5,29.4.2-.1-37.6,23.8-43.8,69.1-6,44.6,26.6,65.4,61.7,45.7,35.8-19.1,51.3-44.1,44.6-69.9,0,0-14.6,8.3-26.7,5.7-12.2-2.6-17-11.2-13.5-22.5,4.1-13,39-18.7,46.1,6.6,0-.2,17-8.4,28.6-36,11.8-28.2,11-38.2,20.2-54.1,0-.4-36.9,12.4-59,52.4.3.7-1.5-41.4,82.2-79.3,6.4-20.4,13.6-40.5,21.6-60.3,11.3-29.1,53.1-69.9,81.4-59.3-.5-.4,42-36.4,73.3-18.9h0l-.2-.3ZM786.4,372.1c-7.6-1.6-15.4-.4-16.5,4.3-.6,2.8,5.1,8.7,13.3,9.3,7.7.6,16.1-1.3,17.5-2.8,0,0-3-8.4-14.3-10.8ZM544.5,487.6c-9.2,8.7-18.7,17.2-28.5,25.3-3.3,9-11,42.7,8.5,53.5,19.2,11,27.8-30.3,28.3-30.1l-8.3-48.6h0ZM917.7,269.6s-12.9,3.9-22.4,5.6c-9.6,1.6-23.4,7.5-23.5,7.4-.2,0-22.7,30.2-8.1,45.8,17.2,19.1,38.3-15.1,38.6-15.2,8.6-28.7,15.5-43.6,15.4-43.6h0ZM914.5,253.6c32.9-76.3,53.4-93.8,52.7-93.6-18.7-7-44.8,18.9-56,41.3-11.4,22.8-21.4,58.7-21.3,58.7,8.2-2.8,24.7-6.4,24.7-6.4h-.1Z"/>
  <path class="st2" d="M961.8,296.4c-7.4,2.1-10.1,8.9-8.7,13.4,1.4,4.6,6.4,8.7,12.9,6.8,6.3-1.8,8.3-9.5,7.3-12.8-.9-3.3-4.2-9.6-11.6-7.5h0ZM1238.4,170.9c2,1.4,7.9-.8,14.4-9.8,6.4-8.9,11.7-28,5.5-32.1-5.1-3.3-13.3,4-13.8,7-1,6.1,7,7,1,21.4-3.4,8.1-9.7,11.5-7,13.4h0ZM1262,162.2c5,1.5,9.9-7.9,13.1-13.7s11.4-14.3,15.8-18.9c4.3-4.5,7.9-13.2,4.5-14.5-3.5-1.3-6.7,1.3-12.8,6.7-6.1,5.4-8.4,15.3-13.5,25.4-3.6,7.2-11.6,13.7-7.1,15h0ZM1280.5,151c-4.7,7.8-5.3,8.4-7.2,13.9-1.8,5.5,5.1,7.1,8-.7,1.9-5,11.3-14.1,17.2-16.2,7.1-2.3,17-10.2,9-14.6-8-4.7-22.5,9.8-27.1,17.6h0ZM2267.5,931.3c-.9,2.4,3,7.4,13.5,11s30.3,3.3,32.3-4c1.7-5.9-7.8-11.6-10.8-11.2-6.2.8-4.6,8.7-20.2,7-8.9-.9-13.6-6.1-14.8-2.9h0ZM2282.7,951.6c0,5.2,10.5,7.2,17,8.6,6.5,1.4,17.2,6.8,22.5,9.7,5.4,2.9,14.7,3.8,15.1.2.3-3.7-2.9-6.2-9.8-10.5-7-4.3-17.1-3.6-28.4-5.6-7.9-1.4-16.5-7.2-16.4-2.4h0ZM2298.9,966c-8.8-2.2-9.6-2.7-15.4-2.9-5.8-.2-5.3,6.9,3,7.5,5.5.3,16.4,6.9,20,12,4.3,6.1,14.9,13.3,16.7,4.5,1.8-9-15.3-19-24.3-21.1h0ZM1574.6,332.7c-31.6-.5-26-20-18.4-25.2,7.1-4.8,12.3-3.7,15.6-.4,4.5,4.5,5.4,14.5-6.7,15.5,0,0,15.4,9.9,35.2-8,10.5-9.6,20.2-29.1,10.2-36.7-8.3-6.8-31.5-.3-54.9,11.4,0,0-27.7,28.7-51.4,25.7,0,0,16.9-8.1,32.2-22.9,15.2-14.5,20.4-23.8,19.1-28.1-1.1-4.7-30.6-1.5-53.3,4,0,0-13.1,12.4-31.7,20.6.2-.2,25.6,10.8,45.2,3.4-.3.1-31.8,19.3-88.8,2.7-57.9-16.1-72.7-10.9-85.7-6.4,0,.3-48.9,54.1-98.1,108.6-51.6,53.4-119.4,118.9-118.5,119.3l-5.6,1c0-.6,52.3-51.1,114.6-121.5,61-70.6,124.1-145.3,130.4-152.2,6.3-7.1,16.2-21.1,13.4-22.9-2.8-1.6-21.3,3-39.6,13.9-.3,0-53,59.5-93.7,104.4-43.2,44.1-115.2,101.6-114.3,102.2l-6.3.8c-.5.1,63-54.8,110.9-105.1,34.6-38.1,56.2-70.1,56-70.3-.4,0-45.2,25.8-51.8-11.7-.6.3-48.8,39.8-62.5,15.3-13.7-23.5,36.8-59.4,37.3-58.8.5.3-25.3-7.6-95.4,29.6-.4.6,38.8-43.6,124.3-45.1,68.9.5,66.2,14.3,106.6,9.1,0,.4,30.2-40.1,80.7-63.4,50.7-23.3,76.5-24.6,87.4-16.2l-10.3,4.7c.2.5-17.2-13.6-63,13.1-46,25.5-95.1,80-94.7,79.6-.3,0,39.7-21.5,55-12.3,6.9,4.4-11.6,22.3-11.6,22.5-.2-.5,39.6-19.2,57.6-14.2,14.2,4.4,10,16.4,10,16.3-.2.2,38.4-9.2,54.1-.1,15.5,8.7-2.3,25.2-2.2,25.2l39-6.5c-.7.2,61.7-47.7,96.8-54,34.4-8,80.8-7.6,84,25.2,2.4,32.6-50.7,39.6-63.1,14.8-16.1-29.8,31.3-37.8,35.5-21.8,3.6,14.3-19.3,15.4-25.1,5.8,0,0-5.2,4.8,2.4,14.7,6.4,8.4,14.7,9.5,23.1,7.5,8.6-2.2,14.1-12.7,9.3-24.1-10.7-25.7-52.8-18.4-66.5-13.4-14,3.9-54.9,18.7-83.9,44.6,0,0,16.1-2.3,19.9,2.9,2.9,3.9-14.3,19.9-14.3,19.9-.3-.4,48.1-21,64.6.9,15.9,21.2-28.2,58.1-59,56.4h0v-.3ZM1271.4,214.5c-17-.8-45.6-3.9-45.6-3.6-.3,0-42.6,23.6-31.1,43.6,10.8,19.9,44.4-7.1,44.8-7.1,4.1-18.1,31.8-32.9,31.9-32.9h0ZM1337.2,214.2c-18.5,3.9-55.3.5-55.3,1.1-.2,0-32.9,21.3-23.1,37.1,12.5,21.5,45.7-3.3,46-2.8,10.5-11.8,21.3-23.6,32.4-35.4h0ZM1439.1,234.7c-12.2-19.1-61.5,13.6-61,14.3l-26.4,29.1c21.5-8.9,58.4-4.6,58.3-4.2-.3,0,39.2-22.4,29.1-39.2h0ZM1462.6,286.8c12.6-7,41.4-27.7,33.6-41.3-8-13.7-39-.5-38.8-.5-5.3,14-38.1,30.5-37.9,30.6,11.8,4.4,43.1,11.1,43.1,11.2h0Z"/>
  <path class="st2" d="M1665.6,397.9c-16.1-29.7-51.4-7-44.3,6.4,6.5,13.6,21.9,2.8,19.9-3.2-2.2-6-7.9-5.6-7.9-5.6,14-17.5,37.3,21.2,11.8,30.6-22.8,8.8-60.6-21.3-46.3-49.3,14.4-29.2,91.3-28.8,91.5-27.8l7-5.2c-10.1.6-47.2,3.3-50.5-9.7-3-11.9,22.7-41.1,65.9-55.2,87.5-27,121.9-13.3,121.6-14.3l7.8-2.2c-12.2-11.3-112.2-3.6-162.3,20.9-25,11.3-36.8,23-45,34.7-19,27.7,5.7,30.3,5.7,30.3-27.4,4-84.8,28.9-56.5,65.7,13.8,19.4,39.4,25.3,58,19.3,18.5-6.1,31.6-20.8,23.7-35.4h0Z"/>
  <path class="st2" d="M1995.5,774.8c-53.6-3.2-90.2-7.3-123.4-15.1l-3.4-4.3c.3.4,39.3,11.1,117.6,11.9,81.7,1.5,131.5-4,139.7-6.2,8.2-1.6,24-2.8,23.5-8.8-.4-4.3-25.6-18-44.1-23.4.2,0-58.1,4.6-116.5-4.2-58.7-8.5-92.7-14-123-22.7l-3.2-3.7c.2,0,52,13.1,122.1,18.3,42.4,2.6,73.4,1.4,73.5,1.1,0-.2-26.2-20.3-4.5-36.6,22.1-16.5,43.7-23.5,24.7-36-16.9-11.3-32.2-16.9-32.3-16.8,0,.3-69.9,9.4-147.2,14.4-78,3.7-168.5,8.6-215.4,8.6l-5-3.5c.4.2,61.9-1,153.8-8.3,91.5-7.2,170.6-16.1,170.3-16.5,0-.6-49.7-20.3-40.8-44.9,8.7-25.7,63.1-8.9,63.2-8.4,0,0-19.6-22.7-50.5-30.3,0,0-27.3,8.5-41,9.6-14.1,1.2-27.8-6.1-39.9-13.8,0,0,25.9,4.4,43.3,0,17.4-4.7,41.6-9.5,39.1-16.8-2.4-7.7-38.4-17.2-38.2-17.2,0-.4-60.5,17.8-102.1,30.3-42.3,12.3-83.7,23.5-116.4,31.3-32.4,6.8-69.8,16.5-69.5,16.2l-4.8-3.1c-.4.2,50.8-11.6,90.2-22.8,38.7-13.2,118.1-40.4,157.3-52.2-.2-.7-58.9-7-53.2-35.5,0-.2-34.3-2.6-69.5-31.4-35.2-29.4-74.1-52.5-108.4-57,0,0,15.8-2,31.5-8.4,23.4-9.8,44.5-17.6,49-26.3,5.3-10.7-33.2-10.5-33.1-10.3l4-4.6c0-.5,44.4-2.3,51.6,12,2.7,5.3-18.7,15.3-18.7,15.3,0,0,18.5-5.3,33.9-2.2-.8-.6,89.7-25.8,128.7-18.9,37.8,5.9,68.8,17.8,68.8,45.2,0,22.6-25.6,25.2-32.6,24.9-13.6-.9-31.3-9.6-35.6-28.7-4.9-20.2,32.2-27.5,36.6-8.1,2.9,14.2-18.2,13.2-21.4,6,0,0-4.1,3.8,3,13.5,10.1,13.5,32.1,11.9,29.5-12.4-3.1-21.6-43.9-32.3-57.8-33.1-13.7-1.3-50.4-2.5-103.8,16.4,0,0,23.4,5.2,11,24,0-.7,52.7-2.5,52.4,25.2-.5,18.3-26.8,22.7-34,23.8-7.4.9-34.7,4.1-34.6,4.2,0,.3,24.6,28.7,51.2,25.3,0,.1,8.4-19.7,44-22.7,21.3-2.1,43.5,9.6,46.8,21.8,1.6,6.3,2.2,16.4-10.2,18.6-19,3.6-19.1-21.4-3.1-20.9,0,.2-11.6-16-30.6-12-17.1,3.7-25.5,17.8-24.3,29.7,1.3,10,13.6,19.2,46.7,20.2,0-.6,58-13.3,90.2-17.4,31.2-4.8,98.4,1.1,129.6,33.7l-5,1.2c0,.4-16.2-20.9-70.5-26.5-47.1-4.9-107.4,13.2-107.3,13.3,0-.6,53.5,14.4,57,27.9,1.8,6.6-20.6,9.7-20.6,9.8,0-.3,38.1,7,64.8,39.5,25.7,33,34,47.1,40.7,52.2,0,0-10.6-3.1-25.4-.8-.1-.2,39.2,18.7,44.4,29.1,3.6,8-9.2,14.6-9.2,14.6-.4,0,37.4,15.1,43.3,41.5,3,13.5-22.5,14.3-22.5,14.4-.1-.4,50.8,23.6,51.7,35.8,1.1,11.3-31.4,9.4-31.3,9.5,0-.8,61.8,25.8,59,55.1-2.7,27.5-66.9-.6-66.6,0-.2.2,1.6,18.9,30.3,38.3,0,0-21.9-3.7-39.4-29.4-17.7-26.4-10.7-30.7-36.1-61.5,0,.3-39.2,2.9-92.6-.6h0l.6.5ZM1784.8,367.2c-18.4-21.2-90,11-89.5,11.8,22.6,3.1,50.1,20.9,50.1,20.6,14.1-.9,54.1-14.7,39.4-32.5h0ZM1837.5,401.2c-6.2-17.8-38-12.8-37.9-12.6-12.5,13.3-46.6,16-46.5,16.1,11.5,7.9,30.9,24.2,30.9,24.2,22.8-.3,59.5-10.4,53.6-27.7h0ZM2061,616.6c-8.3-15.8-25.5-36.3-25.7-36-.2-.2-39.5-18.9-52,3.8-12.6,21.5,34,35.9,33.8,36.6l44-4.4h-.1ZM2122,700.2c-4.7-17.2-30-23.7-29.9-23.6,0,0-5,1.6-25,15.5-21.9,15.2,4.6,25,4.6,25.1-.2-.4,55.3,2,50.3-17h0ZM2167.1,794.5c-27.7-22.3-66.2-19.3-66.2-19.2,23.3,18.9,30.4,43.7,30,43.7,15,6.7,41.8,6.6,49.4-1.5,3.8-4.1-2-13.6-13.2-23Z"/>
  <path class="st2" d="M1980,450.6c7.7.9,31.7-1,41.1-2.9,9.5-1.8,1.6-9.4-9.6-10.1-11.1-.7-20.8,4.6-30.8,5.5s-15-1.9-14.5,2c.4,4,6,4.4,13.8,5.4h0ZM2085,515c-11-1.7-21.1,2.6-31.2,2.5-10.1,0-14.8-3.4-14.7.6,0,4,5.6,5,13.2,6.7,7.5,1.7,31.7,1.9,41.3,1.1,9.6-.9,2.4-9.2-8.6-10.9h0ZM2241.5,804.3c7,3.9,29.9,11.7,39.1,14,9.3,2.2,5.2-8.1-4.6-13.3-10.1-5-21.2-4-30.9-7.2s-13.2-7.8-14.4-3.9c-1.1,3.8,4,6.5,10.8,10.5h0ZM2220.6,824.4c13.3,44,41,31,41.1,31-11.1.2-23.1-14.7-30.6-42.3-5.1-18.9-19.3-52.2-35.6-64.9-17.8-14.7-34.7-14.2-34.7-14.3,40.7,13.5,47.4,52.8,59.8,90.5ZM2366.5,1210.3c8.8-15.1-25.8-49.4-39.1-16.9-8.9,20.3.4,35.7,14,47.4,13.8,12.2,30.1,16.7,41,1.7,22.4-32.7-11.5-79.8-38.6-110.2-27.6-31.2-67-60.2-67.4-60-8.3-53.7-50.8-99.7-50.8-99.2,0,0,31.7-1.2,20.2-28.2-12.7-29.5-48.8-49.3-48.4-49.2-.2-.2,46.3,8,26.3-17.6-24-28.9-42.4-33.5-42.4-33.5,0-.2,31.1,23.5,28.8,31.6-2.3,7.9-17.9,7.2-33.3,5.8-15.3-.2-44.9-3.9-147.4-19.2-100.7-14.1-176.4-29.1-176.2-29.5l2.9,4.6c62.2,13,103.2,17.5,164.1,30.3,59.7,12.7,157,25,157.2,25.6,11.5,4.9,31.9,14.4,45.9,32.7,14.1,19-1.5,35.9-27.7,30.3-26-5.3-27.4-30-27.2-30.2,4.4,8.5,20.4,4.3,15.1-9.8-5.2-14-35.5-11.6-20.3,21.5,13.1,28.6,54.8,34.7,55.2,34.8,51.6,59.7,42.4,119,42.4,118.1-29.3-69.1-96.8-98.6-119-61.1-13.2,21.6-15.6,47.2-11.9,71.8,2.7,22.7,8.8,32.3,19.8,49.7,26.7,45.6,85.9,45.1,76.4-1.4-10.9-45.5-51.9-34.5-46.4-10.9,4.8,24,22.4,13.7,22,5.1-1-8.4-10.5-10.2-10.5-10.2,2.2-8.2,10.7-6.9,10.7-6.9,24.1,9.5,19,45.6-.5,48.6-19.7,2.7-56.1-28.8-57.3-65.9-1.3-41.5,9.7-88.4,50.5-80.8,42.2,7.7,66.4,82.4,65.7,82.6-7.3,34.2-8.4,50.9,3.1,81.2,10,30.2,34.8,45.6,34.8,45.6l-6.4-19.8c-29.9-16.8-24.8-43.5-19.3-71.3,5.6-27.8,4.6-65.1,4.8-65.1,32.6,22.2,43.8,32.3,73.2,70.8,30.3,39.3,23.1,62.4,18.1,71-5.3,8.9-18.5,15.3-26.5,6.3s-8.7-17.4-6.2-27.1c2.5-9.6,12.6-10.7,12.6-10.7-6.9,15.3,10.4,30,18,17.3h0v.3Z"/>
  <g>
    <path class="st2" d="M656.2,1352c.2,3.2-.3,7.3-1.6,12.4-1.7,5.9-3.7,14.8-6,26.8-1.7,11.6-4.3,17.6-7.8,17.8-3.9.1-8.1,0-12.5-.2-5.1-.4-10.3-.6-15.4-.6-10.5,0-18.8-.1-25.1-.4-6.3-.2-8.8-.4-7.6-.4-4.7,0-10.5.2-17.5.7-.8-.2-1.5-.4-2.2-.7-1.9-.5-11.6-.8-29.4-.8h-26.9c-.3,0-1.2-.2-2.6-.5s-2.6-.5-3.4-.5c.4-1.8.9-4.2,1.6-7.3,3-.6,6-1.4,9-2.4,3.9-1.9,6.9-5.1,9.1-9.8,1.2-1.2,2.4-3,3.8-5.3,0-1.5-.2-3.8-.8-6.9-.6-3.2-1-5.5-1-7,1.1.2,3.5-1.3,7.3-4.6-.9-1.6-1.8-3.1-2.6-4.7-.1-.2-1-.4-2.6-.4-2-1.8-1.5-4.5,1.4-8.3,1.7-2.2,2.6-5.1,2.6-8.7s-.4-5.2-1.2-9.1c-.8-3.9-1.2-6.4-1.2-7.5s.3-1.3.8-2.5c.5-1.2.8-2,.8-2.4v-13.7c0-.3.3-1.4.9-3.4.6-2,1-3.5,1.1-4.6,0-.5-.5-2.4-1.5-5.8,0,.3.2-1.7.3-5.9.1-1,0-2.3-.3-3.9-.3-1.4-.4-2.7-.5-4.1,0-1.4.2-4,.8-8,.7-4.3,1-7.1,1.1-8.4,0-2.6-.3-5.2-.6-7.8-.4-3.6-.6-5.4-.6-5.5v-14.2c0-.6.4-1.4,1.2-2.4l-1.2-15.8c-.3-4.3-.1-7.7.5-10.1.5-1.3.7-2.6.7-4,0-2.7-.5-5.9-1.6-9.8-.9-3-1.8-6-2.7-9-.1-.2-.1-2.9,0-8,0,.1-.4-10.7-1.1-32.4-.5-2.5-1-4.9-1.4-7.4,0-.1.2-2.1.7-5.9,0-.7-.2-1.8-.7-3.5-.4-1.1-.8-2.2-1-3.3,0,.6.5-2.3,1.3-8.6-1.6-3.1-4.5-7.2-8.7-12.3-1.2-.9-3-1.4-5.6-1.6-3.2-.3-5.2-.5-5.9-.7-.4-.7-.4-2,0-3.9.5-1.8,1.2-2.9,2.1-3.4,4.1-.3,6.1-.4,5.9-.4,8.2.6,20.7,1.3,37.4,2.1,4.2.2,5.9.3,5.1.3,15.6-1.6,23-2.4,22.3-2.4h21.1c.2,2-.3,4.4-1.6,7.2-3.4.7-8.6,1.7-15.4,3-6.5,1.1-11.2,5.9-14.2,14.5-.8,2.5-1.7,7.1-2.7,13.7-1.2,9.7-1.8,16.5-1.8,20.6v148.3c0,.4.1,1.5.4,3.3.3,1.8.4,3,.4,3.6.4,5.3.4,10.6,0,16-.4,6.7.4,10.3,2.3,10.9,0-.3-.3,2.8-.7,9.2l-.8.6c2.7,12.5,4,19.8,4,21.7-1.4,2.1-2.8,5.4-4.4,10,0,1.2,1.2,5.3,4,12.4,5.7.3,11.5.8,17.2,1.3,1.4.2,3.5,1.4,6.3,3.6.5-.7,1.5-1.9,3.1-3.6,2.5-.1,5.9,0,10.3.6,4.8.4,8.3.6,10.4.6s1.3-.4,2.6-1.3c1.4-.8,2.4-1.4,3.1-1.5,2.6-.5,6.5-1.5,11.6-3,1.1-.4,2.9-2.5,5.4-6.2l5.6-8c5.7-7,8.5-13.2,8.4-18.7,2,.4,4.7,1.2,8.2,2.2h0ZM529.5,1182.2v-8.1c0-2.9,0-7.2.2-13,.1-5.8.2-10.2.2-13,0-12.7-1.5-22.8-4.6-30.2-.6,1.1-.7,3.2-.3,6.4l.9,6.8c.4,12.4,1.6,29.5,3.6,51.2h0Z"/>
    <path class="st2" d="M762.3,1241.7c0,5.2-.2,9.2-.5,11.9-.8,2.1-1.8,5.4-2.8,9.8-.2,4.8-1.2,9.5-2.9,13.9-1.4,1.9-3.4,4.9-6.2,8.9-.8,2.8-2.8,6.8-6,11.9-2.5,2.7-6.5,6.8-11.8,12.3-1.1.4-2.1.9-3.1,1.4-1.1,1.1-3.1,2.7-6.1,4.9-14.6,8-28.6,12.5-41.8,13.6h-17.6c.1,0-.2-.3-1.1-.9-9.6-.2-16.8-1.6-21.7-4.1-1.7-.4-3.3-.8-4.9-1.4-3.6-1.4-9-4-16.2-7.7-8.6-5.6-16.6-13.5-24.1-23.7-4.2-5.7-7.9-13-11.1-22-3-8.3-4.7-15.3-5-21.1-.6-9.5-.3-19.1,1-28.6.5-1.2,1.2-2.9,2.1-5.2.5-2.7,1.5-6.6,2.9-11.8,1.9-3.2,4.5-7.9,7.7-14.1.5-1.1.7-2.4.7-3.6.4-.4,1.3-.3,2.7.4.4-1.3.4-3.1-.1-5.5,1.2-.4,2.9-1.2,5-2.3.6-1.9,2.3-4.2,5-7,8-4.3,16.1-8.6,24.2-12.9,3.4-1.6,6.9-2.9,10.6-3.7,10.8-2.5,18.3-3.8,22.3-3.8h10.5c8.1,0,15,.8,20.8,2.4,3.1.8,10,3.4,20.6,7.6l10.6,7c6.9,4.5,13.3,10.8,19,18.8,5.1,7.1,8.4,13.7,10,19.7.7,1,1.6,2.5,2.7,4.6,1.9,5.5,3.1,13.6,3.4,24.3,0,.4.2,1.2.6,2.5.4,1.3.6,2.4.6,3.2h0ZM732.6,1245.2c-.9-11.6-3.1-22.1-6.6-31.6-4.6-12.3-10-22-16.2-29-8.7-9.9-18.3-15.7-28.6-17.5-9.8-1.7-16.6-2.3-20.2-1.8-7.1,1-13.2,2.6-18.2,4.9-.6.3-4.6,2.7-12.1,7.3-.8,1.2-1.6,2.3-2.6,3.3-.7.2-1.5.5-2.4.8-1.8,2.4-4,5.6-6.6,9.7-.4,1.1-1,2.7-1.9,4.6-1.6,2.5-3,5.1-4.2,7.8-.9,3.4-2.1,8.5-3.7,15.2,0,2.6,0,6.5-.2,11.6,0,.6-.3,1.3-.5,1.8-.3.6-.4,1.2-.5,1.9l5.4,24.9c-.2.8-.3,1.7-.4,2.5.6,1.3,1.5,3,2.7,5.3,0,1.2.4,2.7.8,4.7,3.8,7.7,5.7,11.6,5.7,11.8,2.7,4.7,6.5,9.2,11.1,13.5,0,0,.6,2,1.6,5.7.4,0,2,.2,4.6.7,4.3,4.1,7.7,7,10,8.5,3.2,1.9,9,3.1,17.5,3.7,6.8.5,12.9.5,18.4-.1,1.4-.4,3.2-1,5.6-1.7,2.9-.7,7.2-2.2,12.7-4.6,1.3-1.2,3-2.6,5-4.3,3.5-2.2,6.8-5.3,10-9.5,3.1-4.2,5.1-8,5.9-11.4.9-1.1,2-2.6,3.2-4.7.2-2.1.5-4.2.8-6.2.5-.6,1.1-1.5,1.6-2.7.2-2,.6-6.6,1.4-13.6.7-5.7.9-9.6.8-11.7h0Z"/>
    <path class="st2" d="M925.5,1322.5c0,.8,0,1.6,0,2.5-.1,1-.6,1.7-1.4,2-.8.3-2.4.6-4.8,1-1.7.4-3.5.9-5.2,1.5-2.4.8-4.2,1.2-5.3,1.2l-1.2-.2c-.7-.3-1.3-.7-1.8-1.2-1.1-.9-1.5-1.6-1.3-2.1-.7-.4-2-.3-3.9.4,1.3.8,2.9,1.9,4.8,3.1-4.7.3-7.9-.2-9.5-1.5.1-.6.3-1.7.7-3l-.6-.4c.3,0-2.3-.4-7.9-1l-.7.5c.5.3,1.2.7,2.2,1.1-2.8.1-4.6,0-5.3-.6-.7-1.1-1.5-2.1-2.3-3.2-1.4-1.8-2.7-2.5-3.9-2.3-1.4-2.1-4.8-6-10.2-11.8-4.7-4.9-7.1-7.9-7.3-9-.9-.6-1.7-1.3-2.3-2.2-1.3-1.9-2.4-3.9-3.4-6-.2-.7-.8-1.1-1.5-1.1-.9-3-2.8-5.6-5.8-7.9.4-.8.4-1.5,0-2.1l-4.7-6c-2.1-2.7-3.1-5.1-3.1-7.1v-1c.3-.2,1-.2,2.2.1.3.3.8.6,1.4,1.1,1.2-.2,2.4-.8,3.3-1.6,1.1,1.1,2.6,2.8,4.4,5,.9-.2,1.4-.8,1.4-1.8,0-1.8-.9-2.6-2.7-2.6l.4-.7.4-.6c.4.3,1,.8,1.9,1.4l1.1-.6c.1-1,.1-2,0-3.1-1.4-1.3-3.3-2.1-5.3-2.1-1.1,0-2.8.3-5,.9-2.2.6-3.7.9-4.7.9-1.1,0-2.2-.3-3.1-.8-2.2-1.4-3.6-3.8-4.3-7.2l-1.2-1.1.2-.8c0-1.1-.5-2.1-1.6-2.9-1.1-.8-2.1-1.2-3-1.2-3.6,0-8.4,0-14.5,0h-14.5c-.6,0-.8.3-.8.9-.2,4-.2,6.2-.1,6.7v13.2c.4,7.6.6,12.4.6,14.3,0,.6-.2,1.1-.5,1.6-.3.6-.4,1.3-.3,1.9.6.9,1.2,2.3,2,4.3.7,5,.9,8.2.7,9.6l-4.2,3.3.3.8c3.5,0,9.1.9,16.8,2.3.6.2,1.6.5,2.8,1,.1.5,0,2-.3,4.2-1,.8-1.9,1.2-2.6,1.2-1.9,0-6.9-.7-15-2l-20.4-.4c-2,.6-4.1,1-6.2,1.2-4.4.2-9.7.3-15.9.3,0-1.2,0-2.8,0-5,2.8-1.2,5.8-2.2,8.7-3,2-.5,4.1-2.3,6.4-5.4,2.3-3,3.4-5.5,3.6-7.5.8-9.5,1.2-14.7,1.2-15.6v-73.5c0-.8-.1-1.6-.2-2.5-.1-.9-.2-1.8-.2-2.8,0-2.1.1-4.2.3-6.2.3-3.3.4-5.9.4-7.8s-.1-2.4-.4-4.7c-.3-1.9-.4-3.7-.5-5.6-.1-2-.5-4.9-1-8.7-.6-1.4-1.2-2.9-1.8-4.4-.6-2.4-3-4.2-7.4-5.5-1-.5-1.9-.9-2.9-1.3-1.6,0-3.2,0-4.8-.2-1.5-1.1-1.7-2.7-.7-4.9,1.8-.5,4.5-1,8.1-1.6,10.1-.9,16-1.3,17.6-1.3h13.4c.3,0,2-.2,5.3-.6,3.3-.4,5.1-.6,5.4-.6h7.5c.3,0,1.3.1,3,.4,1.9.2,3.3.4,4,.5,1.2-.3,2.9-.6,5.2-.8,6.4.9,13.7,2.4,21.9,4.4,3,.8,9.1,5.1,18.2,13.1.3.5.3,1.3,0,2.3-1.1,1.2-3.2,2.7-6.4,4.5-3.2,1.8-5.4,3.4-6.5,4.7.1.8.8,1.4,2.2,1.6,1.1.1,2.1,0,3.1-.3.2-.5.6-1,1.1-1.3,1.8-.3,3-.5,3.7-.5.3,1.2,1,2.4,2.2,3.6,1-.4,1.5-1.1,1.5-2.1,0-1.1-.6-2.1-1.4-2.9.9-.3,1.9-.3,2.8,0,1.1.4,2.3.6,3.5.6.6,3.6,1.3,7.1,2,10.6.9,4.8,1.3,8.8,1.3,12s-.3,5.2-.8,7.5c-.9,3.7-2.7,9.1-5.5,16.4-1.6,3.1-4.7,7.7-9.2,13.6-.1.2-3.1,2.7-8.9,7.5,1.8,3.6,4.2,7.6,7.4,12,2.5,3.4,4.4,6.5,5.8,9.3,1.5,3.1,2.7,5.2,3.5,6.5.1.5.3,1.1.7,1.8,3.5,4.6,8.5,11.6,15.1,20.8v1.1c2.6,2.2,5.9,5.3,9.9,9.3,1.8,1.9,4.2,4.8,7.2,8.7-2,.2-3,1.2-3,3.1s.8,2.9,2.3,3.6c.3-2.4,1.3-3.7,2.9-3.7h.8c.2.2,1.8,1,4.6,2.5,4.2,2.3,8.4,4.5,12.6,6.8,1.8.8,4.3,1.2,7.4,1.3h0ZM850,1200.8c-1.7-.6-2.6-1.5-2.6-2.8v-10.8c0-.3,0-.8-.3-1.3l-.4-1.1c-.4-4.4-2.4-9.3-6-14.8-4-6.1-8.2-9.6-12.5-10.5-.8-.5-1.7-.9-2.5-1.3-6.3-1.4-9.9-2.1-10.7-2.1h-8.3c-3.1,0-6,.4-8.5,1.3-.3.1-1,.9-2.2,2.4.4,4,.6,6.3.6,6.7l-.3.6-.3,1v14.2c0,.3-.2.9-.6,1.8-.4.9-.6,1.5-.5,1.9.3,1.6.7,3.2,1.1,4.8.4,1.8.4,3.3,0,4.7-1,3.2-1.1,7.5-.3,12.8-.1-1.1-.2.5-.2,4.8v14.6c0,.9,0,2-.3,3.3-.1.8-.1,1.6,0,2.4.2.9.6,2.1,1.2,3.6,1.5.5,3.7,1.1,6.6,1.7l18.3.4c1.9-.9,4.9-2.1,8.8-3.8,1.5-.5,3.5-1.4,5.9-2.7,3.7-3.7,6.3-7.1,7.9-10.3,1.3-2.6,2.3-6.1,3-10.4,0-1.3.3-3.3.7-5.9.2-1.3.4-2.7.7-4,.3-1,.9-1.4,1.7-1.2h0ZM844.4,1264.1c-.8.9-1.5,1.3-2.2,1.1.1-.7.6-1.4,1.3-1.6l.9.5h0Z"/>
    <path class="st2" d="M1093.6,1225.8c.6,4.9.2,13.6-1.4,26.1-1.4,5.7-2.7,11.3-4.1,17-3.9,16.4-10.9,29.5-21.1,39.3-3.9,3.7-9,7.5-15.3,11.3-7.4,4.5-13.3,6.9-17.8,7.3-1,.6-1.9,1-3,1.4-14,2-20.7,3.1-20.2,3.1h-92.3c-.8-3.4-.5-5.5.8-6.3,3.9-1.5,6.6-2.2,8.1-2.2.5-.8,1.3-1.8,2.4-3.1,4.4-4.7,6.7-10,6.7-15.8s-.3-1.3-.8-3.5c.4-1.4.6-2.8.8-4.3-.6-1.2-1.1-2.4-1.5-3.7,0-.6.1-1.6.6-3.1.5-1.7.8-2.9.9-3.7.2-3.7.3-9.5.3-17.5v-16.3c0-11.2,0-27.3.2-48.4-.1-.7-.4-1.4-.7-2-.5-1-.7-1.7-.7-2.1,0-1.6.2-4,.7-7.2.5-3.2.7-5.7.7-7.2s-.3-1.1-.9-2.2c-.5-.8-.9-1.7-1.1-2.6.2-1.9,0-4.7-.4-8.4-1.6-6.4-4.1-10.5-7.3-12.3-2.5-1.4-7-2.6-13.4-3.5-.2-1.3-.3-2.6-.2-3.8,4.1-2,8.1-2.6,12.2-1.7,1.4,1,2.3,1.4,2.8,1.4.6-.3,1.4-.8,2.4-1.4.9.1,2.3,0,4,0,2.1-.2,3.6-.3,4.4-.3,3.9,0,6.9,1.5,8.9,4.5h.9c.8-1.6,2.3-3.5,4.2-5.9,2.3.4,5.5.8,9.5,1.4.2,0,.5-.3,1.1-.9.5-.5,1.1-.9,1.7-1.1,2.8-.9,7.2-1.4,13.1-1.4h36c15.6,3.5,26.6,6.6,33.1,9.5,12.2,5.4,22.2,13.8,30,25,1.6,2.2,3.9,5.6,6.8,10.3,4.1,8.4,7.1,19.9,8.9,34.5h0ZM1087.3,1225.7c-11.6-.8-19.7-1.1-24.3-.8-1.1-.6-1.6-1.4-1.5-2.4.2-.9.4-1.7.6-2.6-1.8-4.1-4.4-10.2-8-18.2-5-10.4-10.6-18.8-16.6-24.9-6-6.2-15.9-10.5-29.5-12.9-6.1-1.1-8.9-1.6-8.4-1.6h-14.6c-.4,0-2.9.5-7.6,1.4-5,1-8.3,1.5-9.9,1.7-1.3,7.2-1.8,14.6-1.5,22,.2,3.8.2-2.4.2-18.6v57.2c0,39-.2,56.8-.5,53.3.5,5.6.7,8,.8,7.2-.4,3.2-.4,6.5-.2,9.7,0,.6.4,1.9.9,3.9.5,1.7.7,3,.6,3.8-1.6.6-3.1,1.3-4.7,2-2.2.9-3.6,2.1-4,3.7,1.7,1.5,3.8,2.4,6.4,2.7,1.9,0,3.8.1,5.6.3,19.1,2.2,30.1,3.2,33.1,3.2,8.9,0,16.9-1.4,23.9-4.3,6-2.4,11-5.7,14.9-9.7,8.3-8.6,13.8-19.3,16.5-32.1,1.3-6.2,2.2-16.4,2.8-30.8,0-1.2-.8-2.9-2.5-5-.2-1.3.1-2.1.8-2.3,1.5-.5,4.5-1.1,8.8-1.6,3.9-.4,9.4-1,16.6-1.8.9-.7,1.3-1.4,1.3-2.2h0ZM1519.7,1340.6c0,1.1,0,2.1-.1,3.2-.2,1.3-.8,2.2-1.8,2.6-1.1.4-3.2.8-6.5,1.3-1.1.2-3.4.8-6.9,2-3.2,1.1-5.6,1.6-7.2,1.6-.6,0-1.1,0-1.6-.2-.5-.1-1.3-.7-2.4-1.6-1.4-1.1-2-2-1.8-2.7-.9-.5-2.7-.4-5.3.5,1.8,1.1,3.9,2.4,6.4,4.1-6.3.4-10.6-.3-12.7-2,.2-.8.5-2.2.9-3.9l-.8-.5c.4-.1-3.1-.5-10.6-1.3,0,0-.3.1-.9.7.7.4,1.6.8,2.9,1.5-3.8.2-6.2,0-7.2-.8-1-1.4-2-2.8-3-4.1-1.9-2.3-3.7-3.3-5.2-2.9-1.9-2.7-6.5-7.8-13.7-15.3-6.3-6.4-9.6-10.3-9.8-11.7-.9-.5-1.9-1.5-3.2-2.8-1.3-1.7-2.8-4.3-4.6-7.8-.3-.9-1.1-1.4-2-1.5-1.2-3.9-3.8-7.3-7.8-10.2.5-1.1.5-2,0-2.8-2.1-2.6-4.2-5.2-6.3-7.8-2.8-3.5-4.2-6.6-4.2-9.2v-1.3c.4-.3,1.3-.2,2.9.1.4.4,1.1.8,1.9,1.5,1.7-.3,3.2-1,4.4-2.1,1.5,1.4,3.5,3.6,5.9,6.5,1.3-.3,1.9-1.1,1.9-2.4,0-2.3-1.2-3.4-3.7-3.3l.6-.9.6-.8c.5.4,1.4,1.1,2.5,1.9.7,0,1.2-.3,1.5-.8.2-1.3.2-2.7,0-4-1.9-1.7-4.5-2.7-7.1-2.7-1.5,0-3.7.4-6.7,1.1-2.9.8-5,1.1-6.3,1.1-1.5,0-2.9-.3-4.2-1.1-2.9-1.8-4.9-4.9-5.8-9.4-.4-.4-.9-.9-1.6-1.5l.2-1.1c0-1.4-.7-2.7-2.1-3.7-1.4-1.1-2.8-1.6-4-1.6-4.8,0-11.3,0-19.5,0h-19.5c-.8,0-1.1.4-1.1,1.2-.2,5.1-.3,8-.1,8.8v17.1c.6,9.9.8,16.1.8,18.6,0,.7-.3,1.4-.6,2.1-.4,1.1-.5,1.9-.4,2.5.8,1.1,1.6,3,2.7,5.6.9,6.5,1.2,10.6.9,12.5-1.2.9-3.1,2.3-5.7,4.3,0,.5.1.9.4,1.1,4.7,0,12.3,1.1,22.6,3,.8.3,2.1.7,3.8,1.3.2.7,0,2.5-.4,5.4-1.4,1.1-2.5,1.6-3.5,1.6-2.5,0-9.3-.8-20.2-2.5l-27.4-.5c-2.7.7-5.5,1.3-8.3,1.6-6,.3-13.1.4-21.3.4,0-1.5,0-3.7.1-6.5,2.7-1.1,6.6-2.4,11.7-3.8,2.7-.7,5.5-3,8.6-6.9,3-3.9,4.6-7.2,4.8-9.8,1.1-12.3,1.7-19,1.7-20.1v-95.3c0-.4-.1-1.4-.3-3.2-.2-1.2-.3-2.4-.3-3.6-.1-1.1,0-3.9.4-8.1s.6-7.6.6-10.1-.2-3.1-.5-6.1c-.4-2.4-.6-4.8-.6-7.3-.2-2.6-.6-6.3-1.4-11.3-.9-1.9-1.7-3.8-2.4-5.7-.8-3.1-4.1-5.5-10-7.2-.8-.4-2.1-.9-3.9-1.7-1.5,0-3.7,0-6.5-.3-2-1.4-2.3-3.5-.9-6.4,3.6-.8,7.2-1.6,10.8-2.1,13.6-1.2,21.5-1.7,23.6-1.7h18.1c.3,0,2.7-.3,7.1-.8,4.4-.5,6.9-.8,7.3-.8h10.1c.4,0,1.8.2,4,.5,2.6.3,4.4.5,5.4.6,1.6-.4,3.9-.8,6.9-1.1,8.7,1.2,18.5,3.1,29.4,5.7,4,1,12.2,6.6,24.5,17,.3.7.3,1.7,0,2.9-1.4,1.5-4.3,3.5-8.7,5.8-4.3,2.4-7.3,4.4-8.8,6.1.2,1.1,1.1,1.7,2.9,2,1.5.2,2.9,0,4.2-.4.2-.5.7-1.1,1.5-1.7,2.4-.4,4-.7,5.1-.7.4,1.5,1.4,3,2.9,4.6,1.4-.4,2-1.4,2-2.8-.1-1.4-.8-2.8-1.9-3.7,1.2-.4,2.5-.4,3.7,0,1.8.5,3.3.8,4.7.8.8,4.6,1.7,9.2,2.7,13.8,1.2,6.2,1.8,11.4,1.8,15.5s-.4,6.8-1.1,9.7c-1.2,4.8-3.6,11.8-7.4,21.2-2.2,4.1-6.3,10-12.4,17.6-.2.3-4.1,3.5-11.9,9.7,2.4,4.7,5.7,9.9,10,15.5,3.4,4.4,6,8.4,7.8,12.1,2,4,3.6,6.8,4.7,8.4.2.6.5,1.4.9,2.4,4.7,6,11.5,15,20.3,26.9.2.5.2,1,0,1.5,3.6,2.8,8,6.9,13.3,12.1,2.4,2.5,5.6,6.2,9.7,11.3-2.7.3-4,1.6-4,4s1.1,3.8,3.2,4.7c.4-3.2,1.7-4.8,3.9-4.8h1c.3.2,2.4,1.2,6.2,3.2,5.6,2.9,11.3,5.9,16.9,8.8,2.4,1.1,5.7,1.6,9.9,1.7h0ZM1418.1,1182.8c-2.3-.8-3.5-2-3.5-3.6v-14c0-.6-.2-1.1-.4-1.7l-.5-1.4c-.5-5.6-3.2-12-8.1-19.2-5.4-7.8-11-12.4-16.8-13.6-.9-.5-2-1.1-3.4-1.7-8.5-1.9-13.3-2.8-14.4-2.8h-11.1c-4.2,0-8,.6-11.5,1.7-.3.2-1.3,1.2-2.9,3.2.6,5.2.9,8.1.8,8.7l-.4.8-.4,1.3v18.4c0,.4-.3,1.2-.8,2.3-.5,1.1-.8,1.9-.7,2.5.5,2.1,1,4.2,1.5,6.2.5,2.3.5,4.3,0,6.1-1.3,4.2-1.4,9.7-.4,16.5-.2-1.4-.2.7-.2,6.2v18.9c0,1.1-.1,2.6-.3,4.2-.2,1.2-.2,2.3-.1,3.1.2,1.1.8,2.7,1.6,4.6,2,.6,5,1.4,8.8,2.3l24.6.5c2.6-1.1,6.6-2.8,11.9-4.9,2-.6,4.7-1.8,8-3.4,5-4.8,8.5-9.2,10.6-13.4,1.8-3.4,3.1-7.8,4-13.5,0-1.7.4-4.2.9-7.7.2-1.3.5-3,.9-5.2.4-1.3,1.2-1.8,2.3-1.6h0ZM1410.6,1264.9c-1,1.2-2,1.7-2.9,1.5.2-1,.8-1.8,1.8-2.1l1.1.7h0Z"/>
    <path class="st2" d="M1529.5,1176.9c-.3,1.7-.7,3.3-1.1,5,0,0-1.8.5-5.3,1.6-2.3.7-3.6,2-4.2,4-.7,1.3-1.3,2.7-1.8,4.1-.1.6-.9,5.2-2.3,13.9l-.4,61.7c-.4,2.1-.6,3.2-.6,3.4,0,0,.2.8.6,2.5l-.2,18.5c-.5,2.5-.5,6.1,0,10.6.4,5.2,1.3,9.4,2.5,12.7.4,1.1,1.4,2.3,3.2,3.7,3,2.4,6,3.6,9,3.5,0,1-.3,2.5-1,4.6h-10.2c-.2,0-1.1,0-3-.2-1,0-2-.2-3-.2-.2,0-.9,0-2.4.2-.8,0-1.6.2-2.3.2-.1,0-.6,0-1.6-.2-.6-.1-1.2-.2-1.8-.2-.2,0-.5,0-1.2.2-.4.1-.8.2-1.2.2l-18.4.5c-1.6,0-2.3-.8-2.3-2.3s.4-2.8,1.2-3.1c1.9-.5,3.8-1,5.6-1.5,2.2-.6,3.7-1.7,4.2-3.2.2-.9.6-2.4,1-4.4.8.1,2.1.4,3.8.8.6-3.3.9-5.4.9-6.3s-.3-2.1-.9-3.6c.5-1.6.6-3,.2-4.1-.5-1.4-1-2.8-1.6-4.1-.7-1.7-1.1-2.7-1.1-2.9,0,.6.5-1.8,1.6-7.2.2-.6,0-1.5-.7-2.7,1-2.2,1.5-3.7,1.5-4.6s-.1-2.7-.4-7.8c-.1-.8-.3-1.5-.6-2.3-.3-.6-.5-1.3-.6-2,0-.4.3-.9.9-1.7-.2.3-.3-.1-.3-1.3v-14.6c0-.2.1-.9.4-2.1.2-.7.3-1.4.4-2.1l-.2-.9-.2-1c-.1-1.2,0-5.1.1-11.8,0-.8,0-3-.1-6.7v-14.5c0-.9-.4-2.2-1.2-3.9.2-.8,0-2.5-.6-4.9-.1-1.7-.3-3.4-.7-5.1-.6-1-1.2-2-1.8-3.1-.2-.8-.7-2-1.3-3.6-1.1-2.4-2.2-4-3.3-4.7-2.1-.8-4.1-1.7-6.2-2.7.2-1.1.5-2.6.9-4.4h.8c.2,0,.7,0,1.6.3.9.2,1.5.3,1.7.3h33.9l9.9-.6h0ZM1711.4,1150.6c-1.7.3-4,.8-7.1,1.6-3.2,1-5.7,3.4-7.5,7-2.7,5.4-4.3,10.7-4.9,15.8-1.1,9-1.7,16.4-1.7,22.1s.2,4.6.5,12.7c.4,8.1.5,12.3.5,12.8v23.4c0,.3.2,1.2.4,2.9.3,1.6.4,3,.3,3.9-.3,6.6-.6,13.3-.8,19.9,0,.7.2,2.3.5,4.8s.5,3.8.5,4.2v45.1c0,.5,0,.8.2.9l.2.3c-5.9,1.2-8.6,1.8-8,1.8-3.5,0-5.7-.4-6.6-1.3-5.9-6.3-14.5-17.4-25.9-33.1-2.1-3.1-5.1-7.6-9.1-13.5-5-5.7-9.8-11.6-14.5-17.7-2.4-4.4-4.9-8.8-7.6-13.1-11-15.6-21.8-31.4-32.4-47.2-2.6-2.6-5.1-5.2-7.5-8-.2-1-.4-1.9-.8-2.8-1.6-2.8-3.2-5.6-5-8.4-1.7.8-2.8,2.6-2.8,4.5l1.8,15.1c0,.6,0,1.5-.3,2.7s-.4,2-.4,2.5c0,3.9.2,9.9.4,18.1l.4,11.9v20.7c0,.5.1,5.5.3,14.9.2,9.4.3,14.4.3,14.8,0,9.1.9,15.9,2.8,20.5,2.8,7.3,8.2,11.3,16,12,.4,0,.9.4,1.7,1.2.1,1.8,0,3.3-.5,4.4h-44.1c-.4,0-2,.3-4.8.8s-4.3.8-4.7.8h-2c-.7-.9-1.1-1.4-1.1-1.6,0-2.4.9-4.2,2.6-5.4,2.2-.8,5.4-2.2,9.7-4.3,4.2-2.7,6.6-6.9,7.5-12.8,2.1-14.2,2.6-22.9,1.4-26-.6-1.4-.7-2.6-.3-3.5.4-.4.8-.9,1.1-1.4,0,0-.3-.5-.8-1.4,0-1.1,0-2.9.2-5.4.2-2.9.3-5,.3-6.1s-.2-3.8-.7-7.1c-.4-2.4-.6-4.8-.7-7.2,0-.9,0-2.3.2-4.3.2-2.5.2-4.1.3-4.8-.3-1-.7-1.9-1.2-2.8l.7-.8c.4-.6.5-1.7.6-3.2v-1c-1.1-11.1-1.7-18.5-1.7-22.3v-20.4c-.6-11.7-.9-18.7-.9-21.2s.1-.9.4-1.9c.2-.8.4-1.7.3-2.5-5.9-7.2-13.1-10.7-21.9-10.7s-1.5,0-2.3,0l-.6-.7v-4.8c.9-1.2,3.2-1.8,6.9-1.8s3.8.2,10.2.5c6.4.3,9.7.5,10.1.5s3.6-.2,9.6-.5c6-.3,9.2-.5,9.6-.5,2,0,3.1,0,3.5.2,1.1.6,3.6,3.8,7.3,9.6,7,11.4,17.6,28.5,31.7,51.2,2.9,4.1,7.2,10.4,12.9,18.8,0,8.1,0,10.5-.2,7.3.2,3.7,1.3,5.6,3.4,5.6s1-.3,2.1-.9c1-.6,1.7-.9,2.2-.9,1.1,0,2.6,1.8,4.5,5.4.9,1.8,1.7,3.7,2.5,5.5,6.1,5.8,10,10.2,11.5,13.2.4,1.7,1,4.1,1.8,7.4.7,1,1.2,1.6,1.6,1.6l1.4-.6.7-.6c2.3,2.9,5.4,7.1,9.3,12.6,1.4-.8,2.1-1.6,2.1-2.3s-.2-1.3-.5-2.4c-.3-.8-.4-1.6-.5-2.4v-15.8c0-.5,0-1.2-.2-2.2-.1-1.2-.2-2.4-.3-3.6.4-1.8.6-4.5.7-8-.4-2.8-.9-7-1.7-12.5,0-1.5.1-2.9.4-4.4.3-2.2.5-3.4.5-3.6,0-.4-.1-1.2-.4-2.4-.2-.9-.4-1.8-.5-2.7-.1-2.4,0-4.8.1-7.2.2-3.8.3-6.3.3-7.6s-.2-1.4-.6-2.6c-.3-.8-.6-1.7-.8-2.5l.4-4.1c.1-.8,0-2.2-.3-4.3-.3-1.7-.5-3.5-.6-5.3,0-.5.2-1.4.5-2.8.3-1.3.4-2.2.3-2.9-.7-5.9-1.6-11.7-2.6-17.6-1.2-5.1-6-8.5-14.5-10.1.2-1.8,0-3.6-.5-5.4,1-.9,4-1.4,9.1-1.4l23,1.2c2.5,0,4.9-.3,7.4-.6,3.4-.4,6.1-.6,7.9-.6,3,0,5.4.4,7.5,1.2v5.5h0,0ZM1664.3,1262.9l-1.2,1.6-.8-.8.6-3.2c.3.4.5.9.6,1.3.3.7.5,1.1.6,1.1h0Z"/>
    <path class="st2" d="M1198.5,1196.9c0,2,0,3.6-.2,4.6-.4,1.2-.8,2.5-1,3.8,0,1.8-.4,3.7-1.1,5.4-.5.7-1.3,1.9-2.3,3.4-.6,1.6-1.3,3.2-2.2,4.6-.9,1-2.4,2.6-4.4,4.7l-1.1.5c-.7.7-1.5,1.3-2.3,1.9-5.4,3.1-10.6,4.8-15.5,5.3h-6.5l-.4-.4c-3.6,0-6.2-.6-8.1-1.6-.6-.1-1.2-.3-1.8-.5-2.1-.9-4-1.9-6-3-3.2-2.2-6.2-5.2-8.9-9.2-1.8-2.6-3.2-5.5-4.1-8.5-1.1-3.2-1.7-5.9-1.9-8.2-.2-3.7-.1-7.4.4-11.1.2-.5.5-1.1.8-2,.2-1,.6-2.6,1.1-4.6.7-1.3,1.7-3.1,2.9-5.4.2-.4.3-.9.3-1.4.1-.2.5-.1,1,.2.2-.7.1-1.4,0-2.1.5-.2,1.1-.5,1.9-.9.2-.7.9-1.6,1.9-2.7,2-1.1,5-2.8,9-5,1-.5,2.4-1,3.9-1.4,4-1,6.8-1.5,8.2-1.5h3.9c3,0,5.6.3,7.7.9,1.1.3,3.7,1.3,7.6,3l3.9,2.7c2.6,1.7,4.9,4.2,7,7.3,1.9,2.8,3.1,5.3,3.7,7.6.3.4.6,1,1,1.8.7,2.1,1.1,5.3,1.3,9.4,0,.1,0,.5.2,1,.1.5.2.9.2,1.2h0ZM1187.4,1198.3c-.3-4.2-1.1-8.3-2.4-12.3-1.7-4.8-3.7-8.5-6-11.2-3.2-3.8-6.8-6.1-10.6-6.8-3.7-.7-6.1-.9-7.5-.7-2.7.4-4.9,1-6.8,1.9-1.5.9-3,1.9-4.5,2.8l-1,1.3-.9.3c-.9,1.2-1.7,2.5-2.4,3.8-.2.6-.4,1.2-.7,1.8-.5.9-1,1.9-1.6,3-.3,1.3-.8,3.3-1.4,5.9,0,1,0,2.5,0,4.5l-.2.7-.2.7,2,9.6-.2,1c.2.5.6,1.2,1,2.1,0,.5.1,1.1.3,1.8,1.4,3,2.1,4.5,2.1,4.6,1,1.8,2.4,3.6,4.1,5.3,0,0,.2.8.6,2.2.2,0,.7,0,1.7.3,1.6,1.6,2.8,2.7,3.7,3.3,1.2.7,3.3,1.2,6.5,1.4,2.5.2,4.8.2,6.8,0l2.1-.7c1.1-.3,2.7-.9,4.7-1.8.5-.5,1.1-1,1.9-1.7,1.3-.9,2.5-2.1,3.7-3.7,1.2-1.6,1.9-3.1,2.2-4.4.3-.4.7-1,1.2-1.8,0-.7.2-1.5.3-2.4l.6-1c0-.8.2-2.6.5-5.3.3-2.2.4-3.7.3-4.5h0ZM1259.6,1163.2c.3,1.7.2,6.4-.3,14.2,0,.6-.5,1.3-1.3,2.1-.1,0-.7,0-1.6,0,0-1.8-.3-3.6-.8-5.3-.6-2.1-1.7-3.4-3.2-3.9-1.5-.5-4.9-.7-10.1-.7h-8.6c-1.6,0-2.4,1.7-2.4,5.1,0-.4.2,1.5.5,5.6,0,.9,0,2.4-.4,4.4-.3,1.6-.4,3.3-.5,5,0,1.6.3,2.9.8,4h6.6c.1,0,.7,0,1.6.3.9.2,1.5.3,1.8.3h6.4c2.4,0,4.4-1.4,6.2-4.1.1-.5.4-1.3.7-2.2.4-.3,1.1-.5,2.2-.4.2,1.1.3,2.7.4,4.8-.1,2.6-.5,7.7-1.2,15.4-.1,1-.9,1.4-2.5,1.3l-.9-4.4c-.5-1.8-1.5-3-2.9-3.4-.8-.3-2.8-.4-6.2-.4h-7.3c-.3.2-1.1.3-2.4.2-1.1,0-1.9.2-2.3.8,0,.8,0,2.1-.1,3.8,0,.3-.3,1.4-.7,3.2-.4,1.4-.5,2.4-.4,3.2.2.5.5,1.2.7,2.1,0,.6,0,1.6-.2,2.9,0,1-.2,2-.2,3,0,2.8.9,5,2.7,6.6,0,0,2.5,1.1,7.3,3.1-.7.9-1.7,1.4-2.8,1.3-.3,0-.8,0-1.4-.1l-1.2-.2c-3.8-.1-7.6-.3-11.4-.5-2.4-.1-4-.1-4.7,0-.4.3-1,.7-1.8,1.1-.6,0-1.2,0-1.8-.3-.6-.2-1.3-.4-1.9-.6.2-.6,1-1.5,2.3-2.5,1.4-1,2.2-1.8,2.4-2.4,1.2-2.5,1.8-4.8,1.8-7v-16.6c-.2-1.9-.2-3.8-.3-5.7,0,.2,0-.4.1-1.8,0-.9,0-1.7,0-2.6,0-.9-.3-1.8-.7-2.6,1.2-1.8,1.7-3.9,1.7-6.4s-.6-5.2-1.7-8.3c0-.6,0-1.5-.1-2.6,0-.5-.1-1-.3-1.5-.7-1.6-1.7-3-2.9-4.3-.4-.4-1.2-.6-2.5-.7-.3-.4-.4-1.2-.3-2.2l6.8-.2c7.3-.1,18.5-.3,33.5-.4,1.5,0,3.5.2,5.9.5h0ZM1151.4,1257.3l-.2.4c-.3.2-.8.2-1.7.2l-.3-.3c.3-.5.5-.8.4-1-.5-1.4-1.2-2.6-2.1-3.8-1.1-1.3-2.6-2.1-4.3-2.3l-1-.4c-.7-.1-1.4,0-2,0-.7.1-1.4.2-2.1,0l-.9.2-1,.2c-.9.2-1.8.3-2.7.4-.7,0-1.7,0-3,0l-1,.6-.7,1c0,.5,0,1.1,0,2-.4,1-.7,2.1-.9,3.2-.2,1.2,0,2.5.3,3.9l.3,3.7v6.4c.1.7.3,1.2.3,1.5l-.4,1.2-.5.8.9.5.2.7c-.2.4-.6.7-.9,1,.3.5.5,1,.7,1.5.1.8,0,1.6-.3,2.4-.3.7-.5,1.4-.5,2.1,0,.6.1,1.3.3,1.9.2.8.3,1.4.3,1.8,0,.6-.1,1.2-.4,1.7v.6c-.1,0,.6.4.6.4l.2.8c-.3,1.2-.6,2.5-.8,3.8l.4,6.1c0,.7,0,1.8,0,3.1.1,1.1.5,2.2,1.2,3.4l.9.6c.3.5.9,1.3,1.7,2.3.5.4,1,.6,1.6.7.7,0,1.8.2,3.3.3v.8c0,0-9.1,0-9.1,0-.1,0-.6,0-1.6-.2-.5,0-1.1-.1-1.6-.2h-6l-1.4.2c-.6.1-1.3.2-1.9.2-3.1,0-4.9,0-5.4-.1v-.3c0-.5.6-.9,2-1,.6,0,1.5-.3,2.7-.7,1.6-1.1,2.6-2.4,3.2-3.7.3-.8.5-1.7.5-2.7v-2.4c.2-.4.4-.9.7-1.6,0-.4-.1-.8-.1-1.3.4-.9.6-1.9.5-2.8,0-.9-.1-1.7-.4-2.5-.1-.5-.2-1,0-1.6,0-1.3.2-3.3.5-6,0,0,0-.4.2-1v-1.2c.1,0-.2-.5-.2-.5l.2-.4.2-.4c0-3.2,0-4.7,0-4.4.2-1,.2-1.5.2-1.6l-.4-.6c0-.5,0-1.4,0-2.5,0-1,0-1.9.2-2.9.1-.6.3-1,.6-1.2l1-.2c.3,0,.8,0,1.4.3.5.1,1,.2,1.5.3.5,0,1-.2,1.4-.5-.1-.3-.6-.6-1.3-.8l-1.8-.3-.7-.5c-.7,0-1.4-.3-2.1-.7,0-.4,0-1.5,0-3.4s0-.4-.1-1c0-.4-.1-.8-.1-1.2,0-.3,0-.9.2-1.7v-1.7l-.3-.4-.6-.3h0c0-.1.4-.7.4-.7l.4-.5c.2-.5.2-1.6.2-3.1l-1.3-.5h-1.1c-.7,0-1.4-.4-1.7-1-.7.6-1.6,1-2.4,1.4h-.8c-.5,0-1.1,0-2-.2-.6-.1-1.2-.2-1.8-.3-.6,0-1.2.1-1.7.4-.1,0-1,.3-2.6.6-.5.2-.9.5-1.3.9l-4.4,4.8c0,0-.3.7-.7,1.7-.3.8-.7,1.2-1.1,1.2l-.9-.3c0-.4.1-.9.3-1.2.3-.7.4-1.1.5-1.2.2-1.2.6-3.1,1.1-5.5,0,0,.1-1,.2-3,0-1.3.4-2.2,1-2.8,1.7-.3,2.9-.4,3.7-.3.3.1.8.3,1.4.5h.7c0-.1.7-.3.7-.3h1.5c.3-.1.8-.2,1.5-.4.7,0,1.3,0,2,0,1,.2,1.7.3,2,.3l.7-.2.8-.2h5.8c0,0,.7,0,.7,0,.4.1.8.3,1.4.4,4.1.2,6.8.2,7.9,0,.5.1.9.2,1.4.2.2,0,1.1,0,2.7-.2h1.2l.5-.2.5-.2c1.9,0,3.8,0,5.9-.1.4,0,1.4,0,2.9,0l.8.2.9.2c.4,0,1.7-.2,3.9-.5.5.3.7.8.7,1.6l-.2,1.8c0,1,0,1.9,0,2.9v3.5c.2.5.3.9.3,1.4h0ZM1227,1245.9c0,.9-.4,1.5-1.2,1.8-.5,0-1,.2-1.5.4-3,1.9-4.4,4.5-4.1,7.7.1,1.5-.2,3.7-.9,6.6v.9c0,.6,0,1.4.4,2.4.3,1.2.5,1.9.6,2.2.1.7,0,2.7-.6,6-.2,1.3-.5,3.3-.7,5.9,0,1.1,0,2.2.1,3.3.2,1.5.3,2.6.3,3.3l.2,10.2.7,5c.4,2.1,1,4,1.9,5.5.3.6,1.2,1,2.7,1.4,1.1.3,1.6.7,1.6,1.3l-.7,1.1h-22.4c-.2-.3-.4-.7-.4-1.3s.4-1,1.1-1.4c.9-.4,1.7-.8,2.6-1.3,1.1-.7,1.8-1.4,2-2.2.6-3.9,1.1-7.4,1.4-10.5,0-.9,0-1.8,0-2.7-.1-1-.2-1.9-.2-2.9,0-1.3-.2-2.5-.4-3.8-.2-1.3-.1-2.6,0-3.9.2-.7,0-2-.7-3.8-2.3,1.6-4.9,2.6-7.7,2.8-1.6.2-3.3.3-5,.2-.4,0-.9-.1-1.3-.2-.4-.1-.8-.2-1.3-.2h-10.7c-.7,0-1.5.5-2.5,1.4-1.4,1.1-1.8,3-1.2,4.6.2.3.5.9.8,1.6,0,.5,0,1.1,0,1.6-.1.6-.2,1.1-.2,1.7,0,.6,0,1.5.2,2.8l.2,1.9v5.1c0,1.3.4,2.7,1.1,4.3.9,2,2,3.3,3.3,3.8.8.1,1.8.5,3,1,.2,1.3-.6,1.9-2.5,1.9s-1.7-.1-3-.4h-9.8l-.5.4c-.4,0-1.3,0-2.8.1-1.5,0-3,0-4.5-.1-.6,0-1.3-.1-1.9-.2-.2-1.2.5-2,2.1-2.6,2.4-.8,4-2.1,4.6-4,.2-1.5.4-3,.6-4.5.4-2.3.7-4.7.7-7,0-.6-.3-1.1-.6-1.6-.3-.6-.5-1.3-.7-2,0-.7,0-1.4.3-2.1l.4-1.6v-8.9l.4-.8.3-1c0-.4-.3-1.8-.9-4.4l.2-3.6c.1-1.2.1-2.4,0-3.6v-.5c-.1,0-.2-.5-.2-.5v-7.5c0-.6-.4-1.7-1.3-3.2-.9-1.6-1.8-2.5-2.4-2.7-1.4-.3-2.4-.7-2.9-1.2-.2-.2-.2-.6,0-1.1.2-.6.5-1,1.1-1.1.6-.1,2.1-.3,4.7-.5,2.6-.2,4.5-.3,5.8-.3h10.3c1.8.5,2.7,1.1,2.7,1.9l-.5.8c-.5.1-1,.2-1.4.4-2.9,1.4-4.4,2.5-4.5,3.3-.4,3.8-.9,7.6-1.5,11.4v4.6c0,2.5.2,4.2.5,5.3.2.4.7.7,1.5.8,2.9.2,5.9.2,8.8,0,2.4-.1,3.6-.2,3.4-.2h7.4c1.6,0,2.5,0,2.6,0,.3,0,1.1.4,2.5,1.1,1.2.5,2,.8,2.5.7,1.1-.9,1.7-2.4,1.7-4.4s-.2-2.2-.8-5.4c-.1-1.7-.2-3.3-.1-5,0-.5-.2-1.1-.4-1.6-.2-.7-.3-1.3-.4-2,0-2.9-.7-5.2-1.9-6.9-.5-.7-1.5-1.3-3.1-2-1.3-.5-1.9-1.1-1.9-1.6v-.3c.7-.6,1.3-.9,1.7-.9,1.7-.1,3.5,0,5.5.2.4.2,1,.4,1.8.7.9,0,1.9-.1,3.2-.5,1-.3,2.1-.6,3.1-.8.7,0,1.7,0,3.1,0,1.1-.1,1.9-.2,2.5-.2,1.4,0,2.8.4,3.9,1.2ZM1172,1263.4c-.1-.9-.2-1.9-.2-2.8.5-3,.3-6-.6-8.9,0-.3-.6-.9-1.5-1.8.5,2.5.8,4.5.8,6v7.3c0,2.3.1,4.5.4,6.7.6-2.8,1-4.9,1.1-6.5h0ZM1290.2,1295c-.1,1.8-.3,4.3-.7,7.6-.5,1.2-1,2.5-1.5,3.7-.2,1-.5,1.9-.8,2.9-.3.7-.8,1.3-1.3,1.9-.9,1.1-1.6,1.6-2.1,1.6h-12.7c-.2,0-1.7,0-4.5-.1-1.5,0-3-.1-4.5-.1h-7.7c-.2,0-1.2-.1-3.1-.3-1-.1-2.1-.2-3.1-.3h-7.5l-.7-.7c.4-.5,1.8-1.5,4.4-3.1,1.8-1.1,2.6-2.5,2.6-4.1v-16.2c0-2.6.4-6.2,1.1-10.6-.4-1.7-.5-3.4-.2-5.1-.6-.6-.9-1.4-.8-2.2,0,0,.3-1.5.9-4.2,0-.3-.1-.7-.5-1.4-.2-.5-.5-.9-.8-1.4-.3-1.1-.4-2.3-.4-3.4v-3.5c0-1-.2-1.9-.7-2.8-.5-1-1.4-1.8-2.4-2.3-1-.5-2-1-3-1.4.5-1.1,1-1.7,1.5-1.8,1,.1,2.5.2,4.4,0,2.1-.5,3.2-.8,3.1-.8h8.9c.1,0,1.1.1,3,.4,1.9.2,3.3.4,4.3.4.4,0,3.7-.2,10-.8,1.4,0,5.2,0,11.2.3.5.4.8.9.8,1.4s-.1.8-.3,1.4-.3,1-.3,1.3c-.3,3.7-.6,7.5-1.1,11.2-.4.4-.9.7-1.4.9-.2-.3-.8-2.2-1.9-5.5-.7-2.1-1.9-3.3-3.7-3.6-.6-.1-1.2-.3-1.8-.4-.7-.2-1.3-.3-2-.3l-.9.2c-1.5.4-4.6.5-9.5.2-2.7-.2-4.7-.2-6.1.1-.4.1-.7.5-.8,1.2,1.2,4,1.2,7.5.2,10.6,0-.2.1.6.1,2.5s0,1.5-.2,3c-.2,1.2-.2,2.2,0,3,0,.3.4.8.9,1.3h18.7l1.7-.6c.8-.3,1.5-.9,1.9-1.6.3-.9.9-2.1,1.8-3.6.9,0,1.2,0,.9,0,.5.1.9.5,1.1,1.2-.1,2-.2,4.4-.4,7.5,0,2-.3,5-.7,8.9-.1.6-.8.8-2,.6-.7-1.2-1.4-2.3-2.3-3.3-.9-.7-2-1.2-3.1-1.7-.8-.4-1.6-.6-2.4-.7h-6.9c-.4,0-1.3,0-2.5-.2-.9-.1-1.9-.2-2.8-.2-1.8,0-2.9.5-3.3,1.6-.4.9-.7,1.8-.8,2.8,0,.6.1,1.8.3,3.5.2,1.7.3,3,.2,3.9-.1.9-.3,1.8-.5,2.8-.2,1-.4,2-.4,3,0,.6,0,1.1.2,1.6.2.8,1.1,1.8,2.7,3,1.6,1.2,2.9,1.8,4.1,2l.5.2.9.2h8.3c1.9,0,3.4-.3,4.7-.9,1.8-.9,3.5-2.2,5.1-4.1,1.8-2.2,2.8-4.2,3-6.1.9-.6,2-.7,3.3-.3h0ZM646.8,1097.8v.2c-.3.1-.7.2-1.3.1l-.2-.2.3-.7c-.4-.9-.9-1.8-1.5-2.5-.8-.9-1.9-1.4-3.1-1.5l-.7-.3c-.5,0-1,0-1.5,0-.5,0-1,.1-1.5,0h-.6c0,.1-.7.3-.7.3-.4,0-1.1.2-2,.3-.7,0-1.4,0-2.2,0l-.7.4-.5.6c0,.3,0,.8,0,1.3-.2.7-.5,1.4-.6,2.1-.1.9,0,1.7.2,2.6l.2,2.5v4.3c0,0,.2,1,.2,1l-.3.8-.4.6.6.3v.5c.1,0-.5.7-.5.7l.5,1c0,.5,0,1.1-.2,1.6l-.4,1.4c0,.3,0,.7.2,1.2.1.4.2.8.2,1.2l-.3,1.2v.4c-.1,0,.4.3.4.3v.5c0,.8-.3,1.7-.4,2.5l.3,4.1c0,.7,0,1.4,0,2.1.1.8.4,1.6.9,2.3l.6.4c.2.4.6.9,1.2,1.5l1.2.5c.5,0,1.3.1,2.3.2v.5s-6.6,0-6.6,0c0,0-.5,0-1.1-.1-.4,0-.8,0-1.1-.1h-4.3l-1,.2c-.5,0-.9.1-1.4.2-1.3,0-2.6,0-3.9,0v-.2c0-.4.4-.6,1.4-.7.7,0,1.3-.2,2-.5,1-.6,1.8-1.5,2.3-2.5.2-.6.4-1.2.4-1.8v-1.6c0,0,.5-1.1.5-1.1v-.9c.2-.6.3-1.2.3-1.9,0-.6,0-1.2-.3-1.7,0-.1-.1-.5,0-1,0-.9.2-2.2.4-4.1v-.7c.1,0,.2-.8.2-.8l-.3-.3v-.3c.1,0,.3-.3.3-.3,0-2.1,0-3.1,0-3,0-.4.1-.7.1-1.1l-.3-.4c0-.4,0-.9,0-1.7,0-.6,0-1.3.1-1.9l.4-.8.7-.2,1,.2,1.1.2,1-.4c-.1-.2-.4-.4-1-.5l-1.3-.2-.5-.4c-.5,0-1-.2-1.5-.5,0-.8,0-1.5,0-2.3v-.6c0,0-.2-.8-.2-.8,0-.2,0-.6.1-1.1v-1.1l-.2-.3-.5-.2h0c0-.1.3-.5.3-.5l.3-.3c.2-.7.2-1.4.1-2.1l-.9-.3h-.9c-.5,0-1-.2-1.2-.7-.5.4-1.1.7-1.7.9h-.5c-.5,0-.9,0-1.4-.1-.4-.1-.9-.2-1.3-.2l-1.2.3c0,0-.7.2-1.9.4l-.9.6-3.2,3.2c-.2.4-.3.7-.5,1.1-.2.5-.5.8-.8.8l-.6-.2.2-.8.3-.8c.2-.8.4-2,.8-3.7,0,0,0-.7.2-2,0-.9.3-1.5.7-1.9,1.2-.2,2.1-.2,2.7-.2l1,.3h.5c0,0,.5-.2.5-.2h1.1l1.1-.3c.5,0,.9,0,1.4,0,.5.1,1,.2,1.5.2h.5c0-.1.6-.3.6-.3h4.2c0,0,.5,0,.5,0l1,.3c3,.1,4.9.2,5.7,0,.3,0,.7.1,1,.1.1,0,.8,0,2-.1h1.2c0-.1.4-.2.4-.2,1.3,0,2.7,0,4.2,0,.3,0,1,0,2.1,0h.5c0,.1.6.3.6.3.3,0,1.2-.1,2.8-.3l.5,1.1v1.2c-.1,0-.1,1.1-.1,1.1v.9s0,1.8,0,1.8v.5c0,0,.2,1,.2,1h0ZM701.2,1090.2c0,.6-.3,1-.9,1.2l-1.1.3c-2.2,1.3-3.1,3-2.9,5.2,0,1-.1,2.5-.6,4.4v.6c0,.4,0,.9.3,1.6l.4,1.5c0,.5,0,1.8-.4,4-.2,1.3-.4,2.6-.5,4,0,.7,0,1.5.1,2.2.1,1,.2,1.8.2,2.2l.2,6.8.5,3.3c.3,1.4.7,2.7,1.4,3.7.2.4.8.7,1.9.9.8.2,1.2.5,1.2.9l-.5.8h-16.1l-.3-.9c0-.4.3-.7.8-.9.6-.3,1.2-.5,1.9-.8.8-.5,1.3-.9,1.4-1.4.5-2.6.8-5,1-7,0-.4,0-1,0-1.8,0-.6-.1-1.3-.1-1.9,0-.9-.2-1.7-.3-2.6-.1-.9-.1-1.7,0-2.6.1-.5,0-1.3-.5-2.6-1.7,1.1-3.6,1.7-5.5,1.9-1.2.1-2.4.2-3.6.1l-.9-.2-.9-.2h-7.7c-.5,0-1.1.3-1.8.9-1,.9-1.3,1.9-.8,3.1l.6,1.1v1.1c-.1.4-.2.7-.2,1.1,0,.4,0,1,.1,1.9,0,.8.1,1.2.1,1.3v3.4c0,.9.2,1.8.8,2.9.6,1.3,1.4,2.2,2.4,2.6.6,0,1.3.3,2.2.7.1.9-.5,1.3-1.8,1.3s-1.2,0-2.1-.3h-7.1l-.4.3c-.7,0-1.3,0-2,0-1.1,0-2.2,0-3.3,0-.5,0-.9,0-1.4,0-.2-.8.3-1.4,1.5-1.7,1.8-.5,2.9-1.4,3.3-2.6.2-1,.3-2,.4-3,.4-2.1.5-3.7.5-4.7,0-.4-.2-.7-.4-1.1-.2-.4-.4-.9-.5-1.3,0-.5,0-.9.2-1.4.2-.7.2-1,.2-1.1v-5.9l.2-.5.3-.6c0-.3-.2-1.2-.7-2.9l.2-2.4c0-.9,0-1.7,0-2.4v-.3c0,0-.2-.3-.2-.3v-5c0-.4-.3-1.1-.9-2.1-.7-1.1-1.3-1.7-1.7-1.8-.7-.1-1.5-.4-2.1-.8v-.7c0,0,.7-.8.7-.8.4,0,1.6-.2,3.4-.4,1.9-.1,3.3-.2,4.2-.2h7.4c1.3.3,1.9.8,1.9,1.3l-.4.5-1,.3c-2.1.9-3.2,1.7-3.3,2.2-.3,2.5-.7,5.1-1.1,7.6v3.1c0,1.6.1,2.8.4,3.5.1.3.5.4,1.1.5h2.7c.8.1,2,.1,3.7,0,1.7,0,2.6-.1,2.4-.1h5.3c1.1,0,1.8,0,1.9,0,.2,0,.8.3,1.8.7.8.4,1.4.5,1.8.5.8-.6,1.2-1.6,1.2-2.9s-.2-1.5-.5-3.6c0-1.1-.1-2.2-.1-3.3,0-.4-.1-.7-.3-1.1-.1-.4-.2-.9-.2-1.4,0-2-.5-3.5-1.4-4.6-.4-.5-1.1-.9-2.2-1.3-.9-.4-1.4-.7-1.4-1.1v-.2s1.2-.6,1.2-.6c1.2,0,2.5,0,3.9.1.4.2.9.3,1.3.5.8,0,1.6-.1,2.3-.3,1.1-.3,1.9-.5,2.2-.5.5,0,1.2,0,2.2,0,.8,0,1.3-.1,1.8-.1,1,0,2,.3,2.9.8h0ZM661.6,1101.9c0-.6-.1-1.3-.1-1.9.4-2,.2-4-.4-6-.3-.5-.6-.9-1.1-1.2.4,1.7.5,3,.5,4v4.9c0,1.5.1,3,.3,4.5.4-1.9.7-3.3.8-4.3ZM746.7,1123.1c0,1.2-.2,2.9-.5,5.1-.3.6-.7,1.4-1.1,2.5-.2.6-.3,1.3-.5,1.9-.2.5-.6.9-.9,1.3-.6.7-1.1,1.1-1.5,1.1h-12.4c-1.1-.1-2.2-.2-3.2-.2h-5.5c-.1,0-.9,0-2.2-.2-.7,0-1.5-.1-2.2-.2h-5.4l-.5-.5c.3-.3,1.3-1,3.2-2.1,1.3-.8,1.9-1.7,1.9-2.7v-10.8c0-1.8.3-4.1.8-7.1-.3-1.1-.4-2.3-.2-3.4-.4-.4-.6-.9-.6-1.5,0,0,.2-1,.7-2.8l-.4-1c-.2-.3-.3-.6-.5-.9-.2-.7-.3-1.5-.2-2.3v-2.3c0-.7-.2-1.3-.5-1.9-.4-.7-1-1.2-1.8-1.5-.7-.3-1.4-.7-2.2-1,.3-.8.7-1.2,1.1-1.2.7.1,1.8.1,3.2,0,1.5-.4,2.3-.5,2.2-.5h6.4c0,0,.8,0,2.2.2,1.4.2,2.4.3,3.1.3.3,0,2.7-.2,7.2-.5,1,0,3.7,0,8.1.2l.6.9-.2.9-.2.9c-.2,2.5-.4,5-.8,7.5,0,.1-.4.4-1,.6-.5-1.2-1-2.4-1.3-3.7-.5-1.4-1.4-2.2-2.7-2.4-.4,0-.8-.2-1.2-.3-.5-.1-.9-.2-1.4-.2h-.6c-1.1.4-3.3.5-6.9.2-1.5-.1-2.9-.1-4.4.1l-.6.8c.9,2.7.9,5,.1,7.1,0-.2,0,.4,0,1.7s0,1-.1,2c-.1.7-.1,1.3,0,2l.7.9h13.5l1.2-.4c.6-.2,1.1-.6,1.4-1.1.4-.8.8-1.7,1.3-2.4.6,0,.8,0,.6,0l.8.8c0,1.3-.2,3-.3,5,0,2-.2,4-.5,6,0,.4-.6.5-1.4.4-.5-.8-1-1.5-1.6-2.2-.7-.5-1.4-.8-2.2-1.1-.6-.2-1.1-.4-1.7-.5h-5c-.3,0-.9,0-1.8-.2-.7,0-1.4-.2-2-.2-1.3,0-2.1.4-2.4,1.1-.3.6-.5,1.2-.6,1.9,0,.4,0,1.2.2,2.4.1,1.1.2,2,.2,2.6,0,.6-.2,1.2-.4,1.8-.2.9-.3,1.5-.3,2v1.1c.3.5,1,1.2,2.1,2,.9.7,1.9,1.1,2.9,1.4h.4c0,.1.7.2.7.2h6c1.2,0,2.3-.2,3.4-.6,1.3-.6,2.5-1.5,3.7-2.8,1.3-1.4,2-2.8,2.1-4.1.6-.4,1.4-.4,2.3-.2h0ZM1214,1395.1l-.4.5-.2-.2.2-.9.2.4.2.3h0ZM1740.7,1395.5l-.4.4-.2-.2.2-.9.2.4.2.3Z"/>
    <path class="st2" d="M1856.7,1149.2c.2.8.2,1.7.2,2.7,0,2.1-.4,5.8-1.3,11.1s-1.3,9.4-1.3,12,0,2.6.2,3.8c-.7,2.4-1.1,4.8-1.3,7.2,0,.2.4.9.8,2.1.4,1,.5,1.8.5,2.5-.3.6-.8,1.3-1.3,2.2,0,.9.2,3.7.8,8.3-2.2,2.3-4.3,3.5-6.2,3.5s-1.7-.6-2.6-1.9c.8-5.7,1-9.2.7-10.5-.4-2.2-.9-4.4-1.5-6.6-1.9-4.3-5.4-8.9-10.5-14.1-1.9-1.9-6.5-4.5-13.7-7.7-.8-.3-3.8-1-9-2-3.4-.6-8.4-.9-14.8-.9-18.5,0-33,5.1-43.5,15.2-1.3.7-3.2,2.3-5.7,4.5-8.1,11.6-12.7,22.9-13.7,34.1-.5,4.6-.7,12.2-.7,22.8v9.6c0-.6.7,1.9,2,7.7,0,3,.5,7,1.3,12.1.5.6,1.5,2,2.9,4.3,0,1.2.4,2.9.8,5,1.4,1.8,3.4,4.6,6,8.2.4,1.2,1.1,2.9,2,5,4.2,7.8,10.7,14.4,19.5,19.6,3.6,2.2,7.6,3.9,11.7,4.9,18.3,4.5,30.1,6.7,35.3,6.7s4.8-.3,7.1-.9c1.2-.2,2.8-.8,4.9-1.8.5-3.9.7-5.7.7-5.6,0-1.4-.6-2.3-1.8-2.7-1.6-.6-2.8-1.4-3.4-2.4-.9-1.5-1-4.5-.1-9,0,0,0-7.8,0-23.2-.6-5.6-1.4-9.9-2.3-13.1-.6-.5-1.4-1.4-2.3-2.8-1.6-5.1-4.9-8.3-10.1-9.8-2.2-.6-6.8-.9-13.7-1.1-.2-.2-.7-.6-1.3-1.1v-3.7c2.3-.8,6.1-1.2,11.4-1.2s3.7.3,9.8.8c6.1.6,9.4.9,9.8.9.8-.1,1.6-.4,2.3-.7.8-.4,1.6-.6,2.5-.7,5.6-.5,8.8-.8,9.5-.8,13.1,0,18.7,0,16.8,0v6.3c0,.2-.5,1.3-1.4,3.2s-1.5,3.2-1.6,4c-1.6,6.7-2.5,13.5-2.8,20.4-.2,6-.4,11.9-.5,17.9,0,6.7.7,15.8,2.1,27.5-3.4,1.8-9,3.8-16.8,5.9-7.8,2.1-13.7,3.3-17.8,3.6-2,0-4,0-6,.2-4.2,1-7.2,1.5-8.9,1.5s-1.1-.1-2-.4c-.6-.2-1.3-.4-1.9-.5-9.6-.5-17.6-1.3-24-2.6-3.5-1.3-7.1-2.4-10.7-3.5-9.4-1.9-19.8-8.2-31.2-18.7-11.8-10.8-19.1-21.3-21.8-31.4-.8-2.2-1.9-5.5-3.3-10-1-2.2-1.9-4.3-2.8-6.6-1.2-4.7-1.8-8.7-1.8-11.9,0,.3.2-1.5.7-5.4.5-3.3.5-5.6.1-7-.3-1.6-.5-3.3-.5-4.9,0-3.3.7-8,2.2-14.1,2-7.6,3.1-12.6,3.4-15.3,9.2-17.1,14.8-25.7,16.7-25.7l.8.5c.2.4.5.6,1.1.6,1.6,0,2.8-.4,3.8-1.2.4-1.1,1.1-2.7,2.2-4.8,8.6-10,13.9-15,15.7-15l1,.3.9.3c.4,0,1.4-.6,3-1.9,1.6-1.2,2.7-1.9,3.2-1.9s.9.2,1.6.5c.5.3,1,.5,1.6.5.5,0,4.6-1,12.4-3,7.8-2,11.9-3,12.4-3h36.1c.4,0,4.6.4,12.8,1.2,8.1.8,12.4,1.2,12.8,1.2h5.1c3.1,0,5.4,0,6.8,0h0Z"/>
    <path class="st2" d="M2001.8,1343.6c-.2,4.5-3.3,14.7-9.3,30.5-.4,1.2-2.3,3.9-5.5,8.1-8.3,10.8-15.6,17.3-21.9,19.5-1.5.9-3.8,2.1-6.9,3.7-9.5,3.5-21.7,5.3-36.4,5.3s-8.1-.2-11.6-.6c-.2-1.9,0-4.2,1.1-6.9-3.8-3.7-7.2-5.5-10.1-5.5s-4.3,1.1-6.2,3.3c1.7,1.3,3.4,1.9,5.1,1.9.2,1.8-.5,3-2,3.7-1.3.6-2.9.6-4.7,0-.8-.3-7.5-2.8-20.3-7.6-1.9-.5-3.8-1.1-5.6-1.6-2.6-.9-4.6-2.3-6-4l-1.6-10.1c-.9-4.4-1.9-11.6-3.1-21.8v-28.6c0,2.5,0,0,0,0,.6,0,6.9.3,7.6.6.4,7.7,1.5,6.5,4.1,21.8.9,1.5,2.1,3.7,3.6,6.6,3,7,8.2,12.8,14.8,16.5,3.5,2.1,9.4,4.5,17.8,7.1,1.7.5,5.8,1.6,12.2,3.3,4.3,1.2,10.3,2.1,17.8,2.7,2.2-3.3,5.6-5.4,10.2-6.4,6.1-1.2,10.2-2.7,12.4-4.2,1.5-.9,3-3.3,4.6-7.2,1.3-3.2,2.6-6.4,3.8-9.7.8-2.8,2-7.2,3.8-13.2-.2-1.5-.3-3-.3-4.5,0-4.8-1.1-10.1-3.5-15.9-2.6-6.3-5.9-10.7-9.7-13.1-1.2-2.2-2.6-4.3-4.2-6.2-5-3.3-12.4-7.6-22.1-13-2-1.8-5.1-4.1-9.3-6.9-13.3-6.1-25.5-14.3-36.1-24.3-4-3.9-7.9-9.4-11.5-16.5-.2-1.3-.5-2.6-.9-3.9-.6-1.1-1.5-2-2.5-2.8-.2-.4-.4-.8-.7-1.3-.1-2.4-.2-4.9-.2-7.3-.3-3.2-1.2-5.6-2.7-7.3.1-3.4.3-8.4.7-15.2-.7-.6-1.3-1.2-1.8-1.9-.2-.8-.2-2.2,0-4.3.5-.7,1.2-1.6,2-2.7,0,0,1.1-4.8,3.4-14.2,1.3-5.8,4.6-10.8,9.8-15.1.4.7,1.2,1.8,2.4,3.3.3-2.2,1.5-5.2,3.4-9.1,8.2-8.8,16.7-15.7,25.5-20.5,2.7,0,6.4-.3,11.1-.6,5-.4,12.3-1.3,21.6-2.7.4.4.9.9,1.8,1.7,5,.8,12.3,1.7,22,2.6,7,.2,11.2.2,12.7,0,6.7-1,9.6-1.5,8.7-1.5,1.8,0,3.3.4,4.3,1.3l-3.4,71.9c-1.3.8-3.5,1-6.7.8-1.1-4.8-1.7-8.4-1.7-10.8,0-7.8-1.8-15.5-5.5-22.4-4-8.1-9.4-13.4-16-16.1-5.5-2.3-12.1-3.4-19.8-3.4s-14.9,1.2-19.5,3.7c-1.2,0-2.4,0-3.5.4-4.6,2.6-8.7,6.7-12.3,12.2-3.8,5.8-5.8,11.1-5.9,15.8,0,.8.2,2.6.9,5.2.7,2.6,1.1,4.6,1.2,6,0,8.7,4.1,17.2,12.3,25.3,3.7,3.6,9.8,8.3,18.4,14,4,1.7,9.8,4.5,17.4,8.3,20.7,12,35,24.1,42.9,36.3.7,1.8,2,5,3.9,9.3,1.4,3.1,2.8,8.3,4.1,15.4,1.6,8.4,2.2,16.2,2,23.3h0Z"/>
  </g>
  <rect class="st0" x="-1180.6" y="1433.7" width="99.9" height="98.2"/>
</svg>