<?xml version="1.0" encoding="UTF-8"?>
<svg id="Layer_1" xmlns="http://www.w3.org/2000/svg" version="1.1" viewBox="0 0 504 504">
  <!-- Generator: Adobe Illustrator 29.8.2, SVG Export Plug-In . SVG Version: 2.1.1 Build 3)  -->
  <defs>
    <style>
      .st0 {
        fill: #fff;
      }

      .st1 {
        fill: none;
        stroke: #e3750d;
        stroke-miterlimit: 10;
        stroke-width: 2px;
      }
    </style>
  </defs>
  <g>
    <g>
      <path class="st0" d="M60.7,233.7h30.3v7.7h-21.9v6.7h15.4v7.5h-15.4v8.9h22v7.7h-30.4v-38.4Z"/>
      <path class="st0" d="M97.1,233.7h9.4l12,23.9,12.1-23.9h9.2l-21.2,40.1-21.5-40.1Z"/>
      <path class="st0" d="M148,233.7h30.3v7.7h-21.9v6.7h15.4v7.5h-15.4v8.9h22v7.7h-30.4v-38.4Z"/>
      <path class="st0" d="M213.3,272.1l-14.7-16.1v16.1h-8.4v-38.4h18.3c8.9,0,14.5,4.5,14.5,12.2s-4.5,11.4-12.9,11.7l14.5,14.5h-11.2ZM198.6,250.6h10.5c3.2,0,5.2-1.6,5.2-4.7s-2-4.7-5.2-4.7h-10.5v9.4Z"/>
      <path class="st0" d="M232.3,268.1l4.5-6.5c3.8,2.2,8.5,3.5,12.9,3.5,4.1,0,6.6-1.5,6.8-3.9.1-2.3-1.3-3.2-5.9-4.2l-4.8-1.1c-8.6-1.9-12-5.8-12-11.6,0-6.4,6.5-11.1,15-11.1,5.7,0,11.2,1.7,15.2,4.1l-4.2,6.5c-3.1-1.8-6.5-3-10.2-3.1-4,0-6.7,1.3-6.7,3.8,0,2.2,1.7,3.2,5.5,4l5.2,1.1c8.2,1.8,11.7,5.3,11.7,11.4,0,6.6-6.4,11.5-15.9,11.5-6.1,0-12.6-1.8-17-4.5Z"/>
      <path class="st0" d="M274.6,252.9c0-11.2,8.9-20,20.6-20s12.4,2.8,16.1,7.3l-6.5,5.1c-2.2-2.8-5.7-4.5-9.6-4.5-6.8,0-12.2,5-12.2,12.1s5.5,12.1,12.2,12.1,7.5-1.7,9.7-4.6l6.6,5c-3.7,4.6-9.6,7.5-16.3,7.5-11.7,0-20.6-8.7-20.6-19.9Z"/>
      <path class="st0" d="M322.1,233.7h30.3v7.7h-21.9v6.7h15.4v7.5h-15.4v8.9h22v7.7h-30.4v-38.4Z"/>
      <path class="st0" d="M364.3,233.7h8.4l19.5,26v-26h8.4v38.4h-8.3l-19.5-25.9v25.9h-8.4v-38.4Z"/>
      <path class="st0" d="M422.8,241.3h-12.2v-7.7s32.7,0,32.7,0v7.7h-12.2v30.7h-8.3v-30.7Z"/>
    </g>
    <g>
      <path class="st0" d="M60.7,233.7h30.3v7.7h-21.9v6.7h15.4v7.5h-15.4v8.9h22v7.7h-30.4v-38.4Z"/>
      <path class="st0" d="M97.1,233.7h9.4l12,23.9,12.1-23.9h9.2l-21.2,40.1-21.5-40.1Z"/>
      <path class="st0" d="M148,233.7h30.3v7.7h-21.9v6.7h15.4v7.5h-15.4v8.9h22v7.7h-30.4v-38.4Z"/>
      <path class="st0" d="M213.3,272.1l-14.7-16.1v16.1h-8.4v-38.4h18.3c8.9,0,14.5,4.5,14.5,12.2s-4.5,11.4-12.9,11.7l14.5,14.5h-11.2ZM198.6,250.6h10.5c3.2,0,5.2-1.6,5.2-4.7s-2-4.7-5.2-4.7h-10.5v9.4Z"/>
      <path class="st0" d="M232.3,268.1l4.5-6.5c3.8,2.2,8.5,3.5,12.9,3.5,4.1,0,6.6-1.5,6.8-3.9.1-2.3-1.3-3.2-5.9-4.2l-4.8-1.1c-8.6-1.9-12-5.8-12-11.6,0-6.4,6.5-11.1,15-11.1,5.7,0,11.2,1.7,15.2,4.1l-4.2,6.5c-3.1-1.8-6.5-3-10.2-3.1-4,0-6.7,1.3-6.7,3.8,0,2.2,1.7,3.2,5.5,4l5.2,1.1c8.2,1.8,11.7,5.3,11.7,11.4,0,6.6-6.4,11.5-15.9,11.5-6.1,0-12.6-1.8-17-4.5Z"/>
      <path class="st0" d="M274.6,252.9c0-11.2,8.9-20,20.6-20s12.4,2.8,16.1,7.3l-6.5,5.1c-2.2-2.8-5.7-4.5-9.6-4.5-6.8,0-12.2,5-12.2,12.1s5.5,12.1,12.2,12.1,7.5-1.7,9.7-4.6l6.6,5c-3.7,4.6-9.6,7.5-16.3,7.5-11.7,0-20.6-8.7-20.6-19.9Z"/>
      <path class="st0" d="M322.1,233.7h30.3v7.7h-21.9v6.7h15.4v7.5h-15.4v8.9h22v7.7h-30.4v-38.4Z"/>
      <path class="st0" d="M364.3,233.7h8.4l19.5,26v-26h8.4v38.4h-8.3l-19.5-25.9v25.9h-8.4v-38.4Z"/>
      <path class="st0" d="M422.8,241.3h-12.2v-7.7s32.7,0,32.7,0v7.7h-12.2v30.7h-8.3v-30.7Z"/>
    </g>
  </g>
  <rect class="st1" x="40.9" y="216.2" width="425.2" height="71.9"/>
</svg>